<?xml version="1.0" encoding="UTF-8"?>
<svg id="Layer_1" data-name="Layer 1" xmlns="http://www.w3.org/2000/svg" viewBox="0 0 1067.51 874.78">
  <defs>
    <style>
      .cls-1 {
        fill: #694c36;
      }

      .cls-2 {
        fill: #e6d4c2;
      }

      .cls-3 {
        fill: #b3d1ea;
      }

      .cls-4 {
        fill: #84b5e1;
      }

      .cls-5 {
        fill: #a4c9ea;
      }

      .cls-6 {
        fill: #d58b5b;
      }

      .cls-7 {
        fill: #93bfe7;
      }

      .cls-8 {
        fill: #74abdc;
      }
    </style>
  </defs>
  <path class="cls-4" d="m1067.4,29.17v110.53c-4.93,0-9.86.13-14.79-.01-4.09-.12-6.94,1.73-7.47,6.26-.68,5.74-4.01,6.57-8.32,7.8-7.94,2.27-19.08-1.33-21.44,12.9-.15.93-2.38,1.48-3.68,2.11-6.75,3.29-13.85,3.67-21.14,4.13-11.08.71-22.35,1.87-31.93,9.36-3.27,2.56-5,1.56-6.64-2.27-2.04-4.79-6.05-7.37-10.61-7.12-13.73.77-28.55-1.74-37.81,14.23-1.95,3.36-5.54,3.03-8.76,3.02-25.36-.11-50.59,5.48-76.03,1.97-5.09-.7-9.24.18-9.48,7.63-.1,2.96-1.94,5.5-5.04,5.73-14.07,1.04-27.57,7.84-41.86,5.88-12.46-1.7-22.64,2.27-31.05,12.52,2,2.11,5.67.09,8.05,3.8-4.71,1.61-8.57,2.04-12.33-.14-9.26-5.37-18.97-3.59-28.65-2.48-3.89,1.13-8.43-2.88-11.87,1.85-5.5-3.85-11.61-.81-17.36-1.88-1.31-1.88-2.89-.2-4.33-.42-5.46-2.8-11.15-1.37-16.77-1.17-7.79-1.21-15.37,1.53-23.52.5-7.01-.89-15.48,2.39-23.23,1.68-7.76-.71-14.24,4.93-21.81,3.93-1.49-.05-2.99-.09-4.48-.14-.12-3.66-2.06-4.54-4.93-4-4.16-.08-8.95-2.32-11.27,4.01-.35,1.52-2.98,1.12-2.35,3.46-1.36.16-2.72.31-4.08.47-17.07-1.99-34.48,14.47-36.01,30.1-1.84,18.74-9.52,34.06-18.58,48.91-3.28,5.37-7.14,11.2-14.42,10.26l.21.13c-.99.45-1.98.89-2.97,1.34-2.28-.41-4.56-.82-6.84-1.22-1.04.71-1.86.37-2.52-.68-.75.12-1.49.24-2.24.36-1.5-.57-3-.96-4.5.02-.74,0-1.48.02-2.22.03-3.86-5.97-9.35-4.9-14.74-4.26-.56-.16-1.12-.33-1.69-.49-1.16-2.14-3.05-1.37-4.72-1.48-.87-1.59-2.13-2.01-3.69-1.55-1.88-.95-3.77-1.9-5.65-2.86-1.94-2.61-4.59-1.47-6.98-1.66-.06-.92-.13-1.85-.19-2.77-1.28-6.43-4.63-7.98-9.83-5.2-6.4-2.74-12.74-5.95-19.16-8.23-8.15-2.9-15.26-8.68-24.32-9.29-12.78-.86-23.58,4.99-34.51,10.54-15.38,7.81-23.71,23.69-32.71,38.27-3.36,5.44-7.04,13.02-2.15,20.56-.17.9-.33,1.8-.5,2.7-3.49,2.92-10.95,5.25-1.13,10.12.7.35.78,2.23,1.14,3.41-2.25.21-5.38-.52-6.15,2.32-1.62,5.98-5.61,5.59-9.69,5.52-3.01-.06-5.7,1.19-8.24,2.71-16.02,9.57-33.85,12.37-51.03,17.71-5.91,1.84-13.7-.23-17.68,5.8-5.09,7.71-12.02,9.39-19.4,10.47-3.65.53-6.97,1.07-8.88,4.84-2.68,5.29-6.54,5.44-11.19,4.06-6.7-1.99-13.07-1.55-18.97,3.34-12.82,10.63-26.34,19.13-43.31,17.2-3.9-.44-6.16,2.92-7.43,6.91-1.3,4.07-3.91,6.27-7.84,6.37-24.11.67-48.37,4.04-72-4.32-5.68-2.01-10.61-6.76-17.13-5.5.01-55.57.02-111.14.03-166.71,10.9,1.2,21.76-1.39,32.71,5.07,6.37,3.75,15.91.67,24.02.95,4.22.15,6.92-1.39,9.09-5.67,4.35-8.57,10.99-12.42,20.19-11.99,13.02.6,26.09,0,39.13.23,4.74.08,8.03-1.04,10.61-6.17,4.12-8.2,10.68-12.08,19.54-11.48,8.67.58,17.39-.04,26.08.19,4.45.12,7.49-1.12,9.89-5.85,4.13-8.16,10.47-12.4,19.39-11.78,8.09.56,16.23-.1,24.34.19,5.59.2,9.46-1.01,12.8-7.13,5.91-10.81,10.48-11.4,20.39-4.97,1.58,1.03,3.32,2.43,4.7.82,9.81-11.45,24.68-4.29,36.45-13.61,9.7-7.68,24.49-10.72,38.24-8.26,2.99.54,6.34.79,8.92-2.32,9.72-11.69,22.03-15.81,35.98-15.03,8.83.49,17.13-4.18,21.96-10.44,6.69-8.66,12.89-9.93,21.92-7.61,17.09,4.39,18.33,3.26,23.8-15.82.35-1.22.6-2.51.66-3.79.24-4.8,2.62-7.07,6.76-6.86,8.14.41,15.99-3.02,24.18-2.06,5.28.62,8.89-1.02,9.35-8.11.43-6.62,4.67-9.21,10.31-9.26,3.48-.03,6.96-.14,10.44-.01,3.99.14,6.68-.97,7.02-6.19.56-8.57,5.69-11.24,12.57-11.25,11.6-.01,23.19-.13,34.79.03,4.47.06,8.02-.49,8.75-6.58.75-6.27,4.98-8.82,9.91-8.73,11.42.21,23.24-2.99,33.94,4.58,2.49,1.76,5.94,1.81,8.39.07,7.05-5.01,14.76-5.24,22.63-4.91,4.69.2,7.8-1.37,8.19-7.37.5-7.49,4.34-10.39,11.11-10.19,12.46.38,24.93.07,37.4.12,3.8.01,6.97-.47,7.09-5.98.2-9.45,5.59-11.65,12.93-11.52,11.01.2,22.04-.22,33.05.16,6,.21,9.94-.91,10.49-8.84.39-5.71,3.48-10.36,9.28-8.45,13.06,4.3,25.89-1.31,38.83-.28,4,.32,6.65-1,6.99-6.2.57-8.59,5.73-11.2,12.6-11.21,4.35,0,8.7.01,13.05-.03,17.81-.17,15.81,2.17,15.95-17.45h153.17c-.35,6.81,2.32,9.72,8.43,12.13,7.85,3.1,18.04,3.13,21.91,14.46.44,1.28,2.93,1.68,4.47,2.49Z"/>
  <path class="cls-8" d="m879.42.09c-.14,19.62,1.86,17.28-15.95,17.45-4.35.04-8.7.02-13.05.03-6.87.02-12.04,2.63-12.6,11.21-.34,5.2-2.99,6.52-6.99,6.2-12.93-1.03-25.76,4.58-38.83.28-5.79-1.91-8.88,2.74-9.28,8.45-.55,7.94-4.48,9.05-10.49,8.84-11.01-.38-22.03.04-33.05-.16-7.34-.13-12.73,2.08-12.93,11.52-.12,5.51-3.29,6-7.09,5.98-12.47-.05-24.94.26-37.4-.12-6.77-.21-10.62,2.7-11.11,10.19-.4,6-3.51,7.56-8.19,7.37-7.88-.33-15.59-.09-22.63,4.91-2.45,1.74-5.91,1.69-8.39-.07-10.71-7.57-22.53-4.37-33.94-4.58-4.93-.09-9.16,2.46-9.91,8.73-.73,6.09-4.28,6.64-8.75,6.58-11.59-.16-23.19-.05-34.79-.03-6.89,0-12.02,2.68-12.57,11.25-.34,5.23-3.04,6.34-7.02,6.19-3.47-.13-6.96-.02-10.44.01-5.64.05-9.88,2.65-10.31,9.26-.46,7.09-4.07,8.73-9.35,8.11-8.19-.97-16.04,2.47-24.18,2.06-4.15-.21-6.52,2.06-6.76,6.86-.06,1.27-.31,2.57-.66,3.79-5.47,19.08-6.72,20.21-23.8,15.82-9.03-2.32-15.22-1.04-21.92,7.61-4.83,6.26-13.14,10.93-21.96,10.44-13.96-.78-26.27,3.34-35.98,15.03-2.58,3.11-5.93,2.85-8.92,2.32-13.75-2.47-28.54.57-38.24,8.26-11.78,9.33-26.64,2.16-36.45,13.61-1.38,1.61-3.11.21-4.7-.82-9.91-6.42-14.49-5.84-20.39,4.97-3.34,6.11-7.21,7.33-12.8,7.13-8.11-.29-16.26.36-24.34-.19-8.92-.61-15.26,3.62-19.39,11.78-2.4,4.73-5.44,5.97-9.89,5.85-8.69-.23-17.42.39-26.08-.19-8.86-.6-15.42,3.28-19.54,11.48-2.58,5.13-5.87,6.25-10.61,6.17-13.04-.22-26.11.38-39.13-.23-9.19-.43-15.84,3.42-20.19,11.99-2.17,4.28-4.87,5.82-9.09,5.67-8.11-.28-17.66,2.8-24.02-.95-10.95-6.45-21.81-3.86-32.71-5.07C2.44,187.44,2.31,93.76,2.18.09h877.23Z"/>
  <path class="cls-5" d="m1067.4,290.94v217.17c-7.13,3.34-12.06,11.16-20.3,12.36-.74.11-1.66,1.94-1.84,3.09-1.12,7.3-5.9,7.79-11.11,7.82-12.39.06-25.07-1.72-36.82,3.97-8.56,4.15-17.12,6.15-26.47,6.23-6.36.05-9.45,5.66-9.61,12.64-.17,7.43-3.73,10.33-10.01,10.11-11.16-.39-21.96-1.79-33.11-4.29-19.67-4.41-41.01-4.86-60.3.05-11.59,2.95-21.06,1.02-31.51-.32-3.14-.4-6.29-1.18-9.43-1.18-5.4,0-10.93,1.1-13.26-6.66-.48-1.61-2.41-3.42-4.23-2.18-1.95,1.34-.5,3.38.05,5.14,1.41,4.51,5.42,7.74,5.16,13.07-2.72,1.1-4.81-.71-7.17-1.69-11.07-4.6-20.78-12.13-31.36-17.78-3.72-9.39-12.06-10.25-19.36-13.03-5.8-1.85-9.95-6.72-14.94-10.06-1.27-1.26-2.5-2.59-3.82-3.77-18.03-16.06-37.96-29.43-54.46-47.66-1.49-1.64-3.17-2.92-2.69-5.51.52-2.8,2.69-2.99,4.71-3.25,6.12-.78,10.53-3.37,9.89-11.41.05-2.65.09-5.3.13-7.95,4.16-6.36,1.96-13.17,1.13-19.89-.22-.49-.54-.61-.96-.36-.04-.88-.08-1.76-.12-2.64,2.29-5.8,2.92-12.03,3.86-18.19.47-.53.95-1.06,1.42-1.59,6.18,1.86,5.59-8.74,11.54-7.68,4.88.87,7.48-3.16,10.77-6.4,4.19-4.14,6.85-11.53,13.52-11.23,7.42.33,9.61-3.84,9.73-10.93,2.67-3.1,6.52,3.92,8.95-1.29,6.13-3.02,4.82-8.87,4.42-14.37.46-1.44.93-2.89,1.39-4.33,4.18-2.06,8.42-1.83,12.68-.34,6.2-1.91,12.4-3.82,18.59-5.73,5.49.39,10.99,1.3,16.39-.75,3.73-.21,7.46-.45,11.19-.62,8.82-.41,17.05-5.38,26.08-4.22,7.86-12.26,20.65-7.32,30.99-10.89,2.02-.7,4.52-1.09,4.9-3.21,1.52-8.54,5.65-4.46,9.37-2.75,7.37,3.27,15.4.5,22.88,3.09,1.47.51,2.44-1.31,2.9-2.95,18.57,3.19,37.28,3.78,56.02,3.74,7.92,1.62,15.78,4.11,23.95,2.02,1.24-.2,2.48-.39,3.72-.59,11.18,3.81,22.16,1.51,33.22-1.41-.91-2.78-2.14-5.2-4.99-6-2.51-1.01-3.81-3.02-3.96-5.97,3.44-.3,6.71.56,9.85,1.98,3.93,1.78,7.59,2.19,10.8-1.61,1.42.05,3.02-.35,4.23.24,2.91,1.42,6.54,3.5,8.14-.34,2.03-4.9-2.71-6.3-5.61-7.59-7.28-3.25-14.76-5.97-22.16-8.9.57-1.1,1.14-2.19,1.71-3.29,2.23.38,4.45.75,6.68,1.13,8.94,1.54,17.5,5.63,26.75,5.14,1.65-.09,3.82.66,4.67-1.34,1.12-2.64-1.67-2.56-2.64-3.82-4.72-6.1-10.85-8.53-17.73-9.97-6.74-1.42-13.32-3.74-19.97-5.67.08-.9.16-1.81.25-2.71,4.59,2.13,9.18,1.87,13.77,1.88,5.24.01,4.09-2.65,2.19-5.82,3.34.02,6.68-.03,10.44-2.21-.53,7.33.58,12.41,6.83,14.67,9.42,3.41,9.95,4.04,14.09,8.81Z"/>
  <path class="cls-6" d="m1067.4,665.18v207.48c-2.89-.11-5.79-.32-8.68-.32-144.68-.04-289.37-.05-434.05-.1-8.11,0-16.22-.31-24.33-.48,3.67-8.15,8.86-12.61,17.6-14.51,9.42-2.05,19.85-5.29,23.6-17.91,3.98-4.13,9.07-7.01,11.56-12.81,9.62-10.34,16.26-21.23,13.24-37.88-1.82-10.07-3.57-21.14-.46-31.58,1.47-4.92,1.05-9.28-.28-13.87,2.32,0,4.64-.02,6.97-.02,8.76,1.94,17.53,4,25.75-2.15,6.44-.88,12.88-1.75,19.32-2.63,3.69.09,7.81,1.4,10.99.02,6.19-2.68,14.82,2.73,18.83-6.91,11.47-1.36,22.95-2.71,34.42-4.07,8.55,1.46,16.96,1.74,24.71-3.6,2.33-.26,4.65-.52,6.98-.78,1.6,1.87,3.78,1.97,5.64,1.37,9.23-2.97,18.86-2.16,28.1-3.96,5.53-1.07,12.35,2.12,16.82-4.35,14.6-8.53,31.71-5.9,46.63-13.02,9.63-.41,18.91-2.38,27.45-7.65,7.41-6.79,17.51-8.18,24.77-15.29,12.76-3.09,24.69-8.75,36.47-14.83,5.83-.3,11.66-.6,17.49-.9,14.53,1.11,29.06.97,43.59-.1,2.3.28,4.6.56,6.9.84Z"/>
  <path class="cls-3" d="m781.85,727.44c-11.47,1.36-22.95,2.71-34.42,4.07-10.73-1.94-20.22,2.75-29.81,6.89-6.44.88-12.88,1.75-19.32,2.62-8.81-2.7-17.31-.67-25.75,2.15-2.32,0-4.64.01-6.97.02-.93-.69-2.05-2.16-2.77-1.95-7.24,2.09-9.49-.84-7.86-8.74.59-2.89-.05-5.74-3.75-5.46l.15.14c.32-1.94.63-4.07-1.99-3.97-5.59.22-8.06-6.23-7.53-8.74,1.64-7.84-4.69-10.57-6.33-16.01-4.85-10.85-9.09-21.98-11.84-33.74-1.91-8.16-3.55-16.39-5.31-24.59,7.35-3.85,2.16-7.54-.12-11.26,6.51-5.41,12.06-15.19,21.77-5.41,1.77,1.79,4.39.98,6.42-.68,3.72-.19,7.33-.6,10.97,1.39,7.57,4.16,14.92,2.66,21.9-2.12-.05-.99-.11-1.99-.16-2.98.07-.63.14-1.26.22-1.89,4.61-3.28,6.84,3.78,10.85,3.1-1.31,3.18,1.02,4.75,2.5,6.51,8.51,10.09,18.7,18.01,28,27.06,5.82,5.66,13.11,5.21,19.37,8.69,3.72,2.06,8.38-.17,5.6-7.21-.7-1.77-1.17-4.13.35-5.36,1.76-1.43,3.58-.15,5.43.98,2.43,1.49,3.78,3.53,5.07,6.18,2.04,4.16,5.04,7.37,9.88,6.91.64.51,1.29,1.01,1.93,1.51,3.03,2.36,4.63,6.57,8.68,7.71,2.86.8,5.46,1.32,6.12-2.64,1.11-6.6,4.48-4.66,7.52-2.57,2.66,1.83,4.78,4.59,7.36,6.57,3.02,2.32,6.72,3.29,9.83,1.06,3.23-2.31,1.34-5.92-.05-8.62-1.94-3.77.41-6,1.86-8.66,5.42,2.02,8.24,11.9,16.09,6.61,1.05.52,2.97,1.58,3.01,1.49,4.5-9.16,11.45-2.86,17.24-3.41,2.4-.23,4.68-.38,5.42-3.58,1-4.3,3.68-4.34,6.79-3.34,2.86.92,5.77,1.83,7.53-2.04,2-4.41-1.1-6.72-3.52-8.7-5.44-4.44-10.51-9.07-12.66-16.56,2.46-.61,4.92-1.22,7.38-1.83,1.47,5.07,4.05,9.02,8.47,11.48,3.16,1.76,5.79.86,7.66-1.89,2.04-2.99.19-5.13-1.96-7.24-3.46-3.39-6.63-7.14-9.92-10.73,4.41-2.62,9.64,3.24,13.83-1.66,1.61-7.68-5.88-7.45-8.2-11.72-1.79-5.48-6.9-6.34-10.46-9.36-1.82-1.11-3.63-2.21-5.45-3.32-2.53-3.9-6.64-4.52-10.28-6.09-12.01-6.15-25.52-8.68-35.98-18.57.26-5.33-3.75-8.56-5.16-13.07-.55-1.75-2-3.8-.05-5.14,1.82-1.24,3.74.57,4.23,2.18,2.33,7.76,7.87,6.67,13.26,6.66,3.14,0,6.28.77,9.43,1.18,10.46,1.33,19.92,3.27,31.51.32,19.3-4.91,40.63-4.45,60.3-.05,11.15,2.5,21.96,3.9,33.11,4.29,6.28.22,9.84-2.68,10.01-10.11.16-6.98,3.25-12.59,9.61-12.64,9.35-.07,17.91-2.07,26.47-6.23,11.74-5.69,24.43-3.91,36.82-3.97,5.21-.02,9.99-.52,11.11-7.82.18-1.15,1.1-2.98,1.84-3.09,8.24-1.2,13.17-9.02,20.3-12.36v157.06c-2.3-.28-4.6-.56-6.89-.84-.65-1.54-1.67-2.77-3.24-2.77-12.39-.05-24.78-.05-37.18.01-1.58,0-2.56,1.29-3.17,2.85-5.83.3-11.66.6-17.49.9-13.1-5.12-31.93,2.54-36.48,14.84-7.25,7.11-17.35,8.5-24.76,15.29-9.64.34-19.55-.44-27.46,7.64-14.92,7.12-32.03,4.49-46.63,13.02-17.16-.47-34.11.97-50.56,6.93-2.33.26-4.65.52-6.98.77-8.46-.7-16.71.37-24.71,3.6Z"/>
  <path class="cls-7" d="m1067.4,290.94c-4.14-4.76-4.67-5.4-14.09-8.81-6.25-2.26-7.37-7.34-6.83-14.67-3.75,2.18-7.09,2.23-10.44,2.21,0,0-.01-.01-.01-.01-.1-2.28-.14-5.12-2.64-5.35-9.21-.86-17.36-6.17-26.85-6.56-20.07-.84-40.13-2-60.13-4.87-8.17-1.17-17.55-4.58-25.32,2.95-17.47,1.85-34.73-2.83-52.16-2.12-5.68-5.11-12.18-5.22-18.92-3.85-1.53-9.14-8.07-4.05-12.34-5.39-4.61.06-9.22.12-13.83.18-3.67-.66-7.32-1.69-11.01-1.92-14.12-.86-28.27-2.21-42.38-1.9-8.47.19-16.91-4.64-25.35-.21-.91,0-1.82-.01-2.73-.01-1.6-3.19-4.19-3.91-7.25-3.9-8.84.02-17.68-.11-26.52-.18-1.05-2.5-3.05-1.32-4.7-1.52,4.38-7.56.01-9.15-5.48-9.99h.01c9.68-1.09,19.4-2.88,28.65,2.5,3.76,2.18,7.61,1.75,12.33.14-2.38-3.71-6.05-1.68-8.05-3.8,8.41-10.26,18.59-14.23,31.05-12.52,14.29,1.96,27.79-4.84,41.86-5.88,3.1-.23,4.95-2.77,5.04-5.73.24-7.44,4.39-8.33,9.48-7.63,25.44,3.51,50.67-2.09,76.03-1.97,3.22.01,6.81.34,8.76-3.02,9.26-15.97,24.08-13.46,37.81-14.23,4.55-.26,8.56,2.32,10.61,7.12,1.63,3.83,3.36,4.83,6.64,2.27,9.58-7.49,20.85-8.65,31.93-9.36,7.29-.47,14.39-.84,21.14-4.13,1.3-.63,3.52-1.18,3.68-2.11,2.36-14.23,13.5-10.63,21.44-12.9,4.31-1.23,7.64-2.06,8.32-7.8.54-4.53,3.39-6.38,7.47-6.26,4.93.14,9.86.02,14.79.01v151.24Zm-313.17-60.2c-2.59-6.09-6.12-6.27-9.99-5.08-1.18.36-2.12,1.87-1.31,2.96,2.91,3.89,6.78,1.72,11.3,2.12Z"/>
  <path class="cls-2" d="m600.34,871.75c8.11.17,16.22.48,24.33.48,144.68.05,289.37.06,434.05.1,2.89,0,5.79.21,8.68.32-.38.6.88,2.02-.87,1.96-2.32-.08-4.64-.02-6.96-.02-350.43,0-700.86-.02-1051.29.18-6.53,0-8-1.64-8-8.91C.47,580.18.44,294.5.55,8.82c0-2.84-2.01-6.58,1.63-8.73.13,93.67.26,187.35.39,281.02-.01,55.57-.02,111.14-.03,166.71-.02,45.89-.04,91.77-.06,137.66-.02,62.06-.04,124.12-.07,186.18-.1,29.71.09,59.43-.46,89.13-.17,9.15,2.05,12.2,10.62,12.14,55.96-.41,111.92-.51,167.87-.03,14.83.13,28.23-3.21,41.7-10.11,5.77-2.96,9.51-9.15,16.19-10.23,22.26-3.59,38.9-21.59,59.61-29.47,5.64-2.15,12.32-2.04,16.95-6.58,4.75-4.67,9.41-3.9,14.52-1.89-1.14.93-2.17,2.26-3.45,2.73-21.86,7.93-43.09,17.44-63.2,29.96-6.51,4.05-12.97,8.85-20.02,11.01-8.97,2.75-15.91,9.64-24.82,12.57,2.87,1.08,5.6,1.36,8.32,1.37,25.2.05,50.4.08,75.6.05,51.84-.07,103.69-.19,155.53-.3,2.38.08,4.77.16,7.15.23,5.62.42,11.2.17,16.7-1.34,3.71,3.22,8.08.63,12.02,1.67,3.36.89,3.11-1.8,3.46-3.99,5.24,1.66,10.02,5.7,15.95,3.84,1.52-.62.07-4.29,2.92-3.54,1.54,2.41,3.7,1.08,5.62,1.16,4.2.75,8.06,3.87,12.6,2.3,22.18-.28,44.37,1.45,66.53-.58Z"/>
  <path class="cls-8" d="m1067.4,29.17c-1.54-.81-4.03-1.21-4.47-2.49-3.87-11.33-14.06-11.37-21.91-14.46-6.12-2.41-8.78-5.32-8.43-12.13,10.3,0,20.59.14,30.89-.08,3.08-.07,4.17.54,4.02,4.32-.32,8.27-.1,16.56-.1,24.85Z"/>
  <path class="cls-2" d="m646.4,622.78c-2.03,1.66-4.65,2.46-6.42.68-9.71-9.78-15.26,0-21.77,5.41-4.64-.36-7.63-4.42-11.56-6.39-.78-10.4-2.27-20.81-2.09-31.19.15-8.48-2.39-13.92-9.13-17.25-.49.11-.99.09-1.47-.04l.07.05c-1.12-1.53-2.64-1.97-4.33-1.95-2.21-1.97-4.41-3.94-6.62-5.91.51-2.22-.53-3.86-1.91-5.03-9.48-8.09-15.02-20.01-22.38-30.02-3.86-5.25-6.25-10.46-12.58-10.04-5.34.35-10.86.4-15.6-1.42-6.91-2.65-10.42,5.32-16.27,4.68l-1.26-1.95c-.44.64-.87,1.28-1.31,1.92-1.6.18-3.21.35-4.81.53-.9-2.65,4.6-8.24-.61-7.47-4.34.64-9.25-1.71-13.58,1.37,2.53,3.03,4.82,5.76,7.1,8.48-1.06.87-2.12,1.75-3.18,2.62-5.43-7.01-10.8-7.84-15.4.76-1.64,3.07-3.27,2.22-4.75.81-4.21-3.99-10.2-2.81-14.44-6.42-2.09-1.78-4.87-2.51-6.14-.52-1.77,2.77.49,6.02,1.6,8.76,1.07,2.63,2.67,6.02,5.9,2.02l-.03.03c3.31-.39,5.44,2.6,8.27,3.57,7.02,4.45,4.93,13.44,7.98,19.88,7.03,12.56,6.53,19.4-2.38,30.57-.82,1.03-3.36,1.16-2.02,3.18,2.35,3.56,6.21,5.17,9.85,5.33,3.72.16,3.95-3.98,3.99-7.18.03-2.2-.55-4.42-.84-6.63-.74-5.74,2.07-5.6,5.63-4.2-1.8,12.87-3.59,25.73-5.39,38.6-.18-2.25-.38-4.49-.53-6.74-.2-3.06-.79-5.87-4.03-6.5-1.95-.38-3.35.88-4.27,2.63-1.49,2.83.19,4.59,1.68,6.73,5.24,7.56,3.28,18.56-4.02,23.75,8.44,5.2,10.1,4.3,10.53-5.67.14-3.22.32-6.43.48-9.65,1.34,9.58,2.59,19.16-.7,28.6-.8.77-1.3,1.5.17,2.03,0,0-.05-.09-.05-.09-1.19,12.03-.78,24.08-.31,36.14-5.7-5.83-4.59-16.33-12.28-23.44.65,7.31.74,12.26,1.72,17.36,1.07,5.61,2.66,12.32-3.18,16.72-1.26-.61-2.69-1.96-3.75-1.67-1.98.56-.95,2.3-.42,3.78.73,2.06,1.54,4.21,1.7,6.37.16,2.24-2.28,5.81,1.11,6.27,3.92.53,4.75-3.39,4.7-7.15,8.31-.03,7.35-8.9,10.59-13.77.87,1.08,1.2,4.11,3.19,1.07-.15-4.6,1.17-7.93,5.82-8.39-.02,3.71-.55,7.06-1.8,10.75-2.08,6.15-7.56,10.17-7.99,17.1-4.49,3.15-9.97,5.94-3.9,13.01-.06.6-.18,1.19-.35,1.77-1.9.69-3.8,1.37-5.7,2.06-2.39,2.81-1.6,6.13-1.18,9.38-3.42-9.75-10.49-15.9-17.51-22.11-2.19-11.19-4.33-22.39-11.06-33.43-2.48,8.67-.75,17.34,1.61,20.64,4.52,6.33,4.11,13.07,5.67,19.55,1.03,4.29.75,10.03-4.16,11.21-5.94,1.42-3.13-5.06-4.47-7.9-.98-2.06-.99-5.5-4.15-5.2-1.71.17-4.28,2.1-3.75,3.25,4.29,9.47-4.78,11.88-7.18,17.72-3.08-8.37-6.15-16.74-9.23-25.1.35-4.29.44-8.46-3.82-10.87-1.76,2.82-.92,5.11-.07,7.39-.97,1.24-1.94,2.48-2.9,3.72-2.31-.13-4.62-.27-6.93-.4-5.33-.53-3.75-4.68-3.44-8.16,3.87-7.41-4.35-9.49-5.26-14.8-.19-.87-.39-1.75-.58-2.62-.25-1.19-.5-2.38-.75-3.56-4.61-11.49-10.2-22.95-13.51-34.54-5.98-20.93-14.46-40.85-19.52-62.09-2.3-9.63-.66-12.88,8.29-11.81,6.63.79,7.22-2.4,6.74-7.91,10.2-3.35,19.1-19.17,16.65-32.95,1.57-1.37,2.87-2.71-.27-3.64-.63-1.58-1.26-3.16-1.88-4.75,6.5-.34,13.7-5.81,17.69,2.41,5.81-5.03,1.73-14.13,7.29-19.55,4.4-4.29,1.14-7.73-.48-11.69-.76-1.85-2.12-4.65-2.9-3.39-2.14,3.44-7.37,3-7.77,8.17-.12,1.6-.59,3.2-.51,4.78.11,2.42-.03,4.67-2.29,5.67-2.16.96-2.88-1.48-4.12-2.65-1.53-1.46-3.08-2.89-4.63-4.34.25-2.75,2.27-4.31,3.45-6.43,3.43-6.15,2.84-7.9-3.42-11.71.96,18.24-13.23,6.6-18.94,11.7,1.59,3.47,4.53,2.43,6.92,2.57,3.61.22,4.54,3.26,5.87,6-2.9,4.11-3.08,7.99.81,11.51.7,13.71-4.6,25.53-12.92,34.08-4.37,4.5-2.82,5.7-.91,8.98-2.59-.15-5.18-.36-7.77-.43-6.54-.18-12.05-6.08-12.16-13.09-.22-15.13-5.04-19.47-17.24-15.51-1.45-2.64-3.24-4.9-5.69-6.46-1.23-3.73,3.71-9.78-3.42-11.29,0-1.42.02-2.84.02-4.25,2.32-.64,2.06-2.82,1.9-4.57-.83-9.33-6.8-17.22-6-27.16.16-1.98-2.8-.97-4.38-1.06-.58-1.27-1.17-2.54-1.75-3.82-3.64-10.75-.65-22.29-3.16-33.22-.66-2.86.78-5.99,2.71-7.79,6.7-6.23,10.25-16.18,18.96-20,.58,1.61,1.37,2.69,3.2,2.14,7.67-2.33,15.36-4.59,23.05-6.87,2.55-1.77,6.58-2.65,4.5-7.59-6.46-15.37-13.32-30.47-25.48-41.51-.49-5.92-5.81-5.44-8.72-8.14-1.8-1.67-5.83-2.32-4.02-5.92,2.92-5.8-1.05-4.88-3.46-4.91-5.33-.06-9.89,2.93-14.18,5.93-3.92,2.74-3.42-.9-4.25-2.88.3-1.76,1.18-4.26-1.36-4.24-2.11.02-2.23,2.25-1.43,4.23,1.05,2.6.51,4.2-2.24,4.38-.78-2.08-2-.49-3.03-.44-4.89-7.54-1.21-15.12,2.15-20.56,9-14.58,17.33-30.46,32.71-38.27,10.92-5.55,21.73-11.4,34.51-10.54,9.06.61,16.17,6.4,24.32,9.29,6.42,2.28,12.76,5.48,19.16,8.23-4.91,3.3-12.15,1.21-15.41,8.3.25.58.49,1.16.74,1.75.24-.46.48-.91.72-1.37,6.57-3.06,13.58,4.27,20.06-1.04,1.3.11,2.61.22,3.91.33,2.4.18,5.05-.95,6.99,1.66,0,0,.37.51.37.51-2.47.14-5.04-.82-8.81,1.75h8.96c1.53,2.12,3.25,2.24,5.14.59,1.56-.46,2.83-.04,3.69,1.55.98,2.85,2.97,1.71,4.73,1.47.56.16,1.12.33,1.69.49.77,4.5,1.99,8.47,7.27,7.65l-.18-.16c-.61,4.02,2.5,4.16,4.54,5.43,6.83,1.61,11.83.19,12.06-9.08.66,1.05,1.47,1.39,2.52.68,1.25,1.84,2,3.9,1.45,6.19-.68,2.86,1.5,3.39,2.78,3.54,1.96.23,2.81-1.47,2.61-3.75-.14-1.57-.01-3.17,0-4.75.99-.45,1.98-.89,2.97-1.33,0,0-.21-.14-.21-.14,7.29.94,11.15-4.89,14.42-10.26,9.06-14.86,16.74-30.18,18.58-48.91,1.53-15.62,18.94-32.09,36.01-30.1.68.88,1.37,1.76,2.05,2.64-1.2,1.1-2.39,2.39.35,2.59,2.19.16,4.41-.25,6.61-.4,4.06-1.44,4.77-8.85,10.5-7.31,3.08,3.47,5.14-.32,7.59-1.31,7.57,1,14.05-4.64,21.81-3.93,7.76.71,16.22-2.57,23.23-1.68,8.15,1.03,15.73-1.71,23.52-.5-.17,2.92-.25,5.97,2.85,7.05,2.07.72,4.07-.33,4.99-2.54,1.98-4.76,5.97-2.22,8.94-3.35,1.44.22,3.02-1.46,4.33.42-1.87,1.53,3,5.15-1.37,5.79-10.44,1.51-20.87,3.37-31.37,4.19-20.13,1.57-40.37,1.66-60.1,7.26-.16-.27-.27-.66-.49-.78-.22-.12-.69-.08-.82.1-6.39,8.72-16.43,10.63-24.78,15.23-5.9,3.26-1.47,5.13-1.13,7.69-9.33-.65-21.23,6.43-20.54,13.11.43,4.15-.49,4.33-3.01,5.79-7.76,4.51-7.62,10.15.22,16.79-2.02,1.39-5.4-.25-6.67,3.76,3.63.36,6.84.67,10.46,1.03-2.27,3.01-5.8-.03-7.38,3.54,5.07,5.57,12.42.37,17.67,4.53-5.06,12.7-17.77,5.29-25.31,12.39,11.32-2.67,19.07,8.01,29.62,8.44-4.69,1.71-9.2,2.15-13.73,2.31-2.27.08-5.25,1.15-3.25,3.33,5.15,5.62-.17,5.68-2.48,7.39-5.28,3.92-10.86,5.94-18.23,1.17,6.46,10.45,24.48,14.17,35.28,10.8,12.73-3.97,25.35-2.32,37.29,5.21,3.37,2.12,3.54,17.1,11.6,4.5.04-.06.88.42,1.28.75,7.53,6.07,13.22,14.12,22.35,18.85,7.46,3.87,15.25,9.93,21.53,17.04,2.31,8.12,3.68,16.29,3.24,24.96-.29,5.66-2.09,8.12-7.01,7.97-1.27-3.08-3.08-2.45-5.03-.92-1.29.31-2.58.62-3.88.93-5.86,5.25-7.7,14.84-4.41,22.96,4.99-6.44,5.4-8.38,4.48-20.8.73.75,1.47,1.51,2.2,2.26,2.1,2.08,2.89,4.9,3.22,8.17,2.9-2.13,5.97-3.49,5.2-7.93,3.38,3.09,7.32,4.14,11.6,3.92,1.46.43,2.92.86,4.39,1.3,2.02-.2,1.83-3.14,4.48-3.53,6.2-.91,12.09-.4,18.02,1.37,2.44,1.37,5.88-1.25,7.64,1.84,1.1,1.93-1.85,2.61-2.33,4.29-6.72-.3-13.4-.29-20.3,3.48,7.38,5.17,14.81,3.97,22.13,3.63,3.22-.05,3.21-4.59,5.95-5.3.64,8.04-3.77,10.63-9.88,11.41-2.02.26-4.19.45-4.71,3.25-.48,2.59,1.2,3.87,2.69,5.51,16.51,18.24,36.44,31.6,54.46,47.66,1.33,1.18,2.55,2.51,3.82,3.77-1.88.13-3.75.26-5.63.39-1.91-3.2-5-3.93-8.03-4.78-.64-.74-1.35-1.2-1.98-.11-.1.16.58.89.9,1.35,1.67,7.83,4.12,15.62,10.24,20.14,5.67,4.2,7.13,11.28,11.29,16.38,2.23,2.74,2.51,9.19,6.04,8.46,7.19-1.49,7.95,4.1,10.32,8.62,1.53,2.91,2.03,6.94,5.85,7.76-1.03,3.92,2.39,10.3-4.81,10.82-.95-9.45-9.01-11.79-14.4-13.67-6.81-2.37-9.59-5.92-10.58-12.82,2.64-2.87,3.32-6.33.9-9.43-3.36-4.31-3.76,1.67-5.69,2.52-3.68,1.62-7.35,1.5-11.02.37-5.64-1.74-10.31-5.51-15.04-9.14-1.74-1.34-2.59-4.86-5.54-3.44-3.66,1.77,1.28,5.27-1.02,7.43-4.55-.1-4.49-6.1-8.13-8.05-1.64,7.42,3,10.54,6.86,14.12-.32,3.46,2.21,8.52-.31,10.11-9.86,6.22-1.95,10.45.74,15.35-3.45.99-3.9,3.38-1.72,6.03,2.22,2.69,1.91,6.39,3.59,9.2-.93.62-1.85,1.24-2.78,1.87-5.87-5.4-12.88-4.77-18.8-1.9-3.04,1.48-1.96,8.25-2.56,12.67-.17,1.27-.36,2.54-.55,3.81-2.71,1.79-4.89-1.32-7.44-.99-1.38.03-2.76.07-4.14.1l.08.02c-.29-5.14-4.37-7.36-7.13-10.13-3.06-3.07-8.34-3.35-10.92.06-3.3,4.36.83,7.2,4.04,9.45.48.34.9.78,1.34,1.18.21,1.2.42,2.41.64,3.61Zm-180.96-82.04c-.35-.39-.96-1.16-1.02-1.11-.99.82-.37,1.39.32,1.91.07,1.64.49,3.02,2.13,3.45.57,3.95-.19,8.5,3.67,11,1.09.71,2.5.04,2.7-1.31.84-5.48-2.44-7.9-6.26-9.8.23-1.73-.16-3.16-1.54-4.14Zm172.17-3.39c6.11-1.62,6.01-5.85,4.27-11.69-4.24,3.05-4.09,7.33-4.81,11.18-1.27,1.12-1.6,3.6-.67,3.79,1.54.31.75-2.12,1.2-3.28Zm-40.39-147.51c.18-2.74.43-5.48.51-8.23.08-2.69-1.43-2.96-3.32-2.39-1.5.45-5.42-2.46-3.38,2.98-2.73,7.65,1.39,11.59,6.53,14.98,1.26,4.73,1.91,8.47-1.44,13.53-7.26,10.99,6.67,16.45,5.31,28.36,4.54-6,.96-11.53,4.72-14.8,3.87,1.5,6.49,4.53,8.91,8.12.74,1.1.37,5.65,3.73,2.92,2.11-1.72,1.11-3.53.36-5.81-1.87-5.7-6.99-8.27-9.5-13.25.36-5.18-4.69-8.71-4.34-12.97.59-7.33-2.46-8.11-7.41-7.69-.23-1.92-.46-3.84-.68-5.77Zm-236.79-72.12c-.96.18-1.93.37-2.89.55.58-1.06,1.14-2.14,1.75-3.18,2.93-5,2.02-10.13-2.53-11.87-4.08-1.56-10.51-3.96-13.09,2.25-2.25,5.4-.55,11.44,5.26,14.2,1.48.7,3.37.33,5.07.45-2.57,3.53-7.22.5-11.13,4.76,8.61,3.86,13.59-.86,18.43-6.17.63-.57,1.14-1.22.21-1.92-.12-.09-.71.6-1.08.92Zm72.78,12.19c.63-2.89-.63-4.4-3.04-4.02-2.69.42-1.71,2.39-.83,4.06.23,1.52.66,3.04.66,4.57,0,4.37,3,5.01,5.09,3.58,1.27-.87-.37-5.32,2.75-6.54-1.13-2-3.07-1.14-4.63-1.64Zm-39.72-25.28c-10.34-1.32-20.68-2.63-31.02-3.94l.07-.07c1.95,6.75,7.23,4.53,11.41,5.25,7.17,1.23,14.81.48,21.53,6.74v-7.72c.77-.24,1.8-.22,2.26-.78.71-.87-.03-1.54-.86-1.67-1.6-.25-3.37-.66-3.39,2.2Zm-32.77,153.11l-.23-.28.29.22c-3.35,4.86-8.5,11.12-1.5,15.3,7.82,4.68,9.87,14.73,17.32,18.99,2.99,1.71,6.54,2.34,7.56,6.93.22.98,2.33,2.06,3.54,2.03,2.4-.07,2.02-2.54,2.12-4.37.11-1.92.12-3.84.18-5.76,3.52-1.47,7.55-2.37,7.12-8.13,2.83-.71,5.65-1.42,8.48-2.14,3.03.19,2.38-1.61,1.39-3.38-2.05-3.67-4.19-7.28-6.3-10.92-1.19-4.46-2.75-8.59-7.14-10.3,1.25-4.95-.75-8.81-3.39-12.45-7.44-13.91-11.47-15.06-23.57-7.52-4.05,2.52-6.35,8.3-11.31,8.53-9.94.47-14.61,9.46-22.91,15.7,7.26,1.27,12.19,3.89,13.17,12.73,2.4-4.98,5.29-8.28,5.37-11.65.27-11.34,6.65-9.99,13.03-8.57,2.26.5,4.41,1.36,6.76.97,2.39,1.24,4.78,2.48,7.17,3.72-6.77,0-6.67,6.21-8.53,10.38-5.31-.75-5.46-7.01-8.65-10.03Zm266.79,50.35c6.23,3.88,9.4,4.46,11.22,2.46,5.02-5.54,16.79-2.81,19.59,4.55,3.07-.09,2.1-5.33,2.7-4.66,6.41,7.15,2.94-6.22,6.73-3.88,1.75-5.31-5.72-7.47-3.66-13.4.38-1.1-3.73.91-5.28.22-5.81-2.6-4.78,6.24-7.68,5.9-8.95-1.05-15.54,4.61-23.64,8.81Zm-286.24-34.44c-6.76-8.61-9.89-.64-13.92,2.35-1.39,1.03-1.31,2.72-.4,4.2,1.02,1.67,2.33,1.39,3.69.49,3.4-2.26,6.81-4.51,10.64-7.04Zm308.82,8.63c2.45-5.39-3.23-9.44-1.12-14.7.79-1.97-2.51-1.61-4.04-1.11-1.66.54-3.58,1.49-2.18,4.02,2.17,3.91,3,8.92,7.34,11.79Zm23.96,51.58q1.8,10.18,9.84,8.92c-3.05-3.52-4.92-7.94-9.84-8.92Zm-322.62-45.46c1.74-.06,4.52-.07,3.21-2.5-1.07-1.98,1.35-6.59-3.08-6.05-2.41.29-5.77.18-5.74,4.03.02,3.61,3.33,3.66,5.61,4.52Zm287.87-26.59c-5.64,2.75-4.21,8.92-5.42,13.73-.38,1.53-.85,3.95,1.38,4.85,1.62.66,2.61-.78,3.71-1.73,1.56-1.34,2.12-2.69.38-4.52-4-4.21-.67-8.06-.05-12.34Zm2.53,22.49c.34,3.78-4.63,3.33-4.25,6.58.42,3.62,3.23,5.7,6.75,5.68,3.07-.02,2.52-2.21,2.26-4.52-.35-3.16-.43-6.32-4.76-7.74Zm-68.86-73.64c-.04-1.98-.15-4.22-2.37-4.41-2.85-.24-4.15,1.83-4.08,4.83.04,1.96.47,4.16,2.76,3.88,2.05-.24,3.93-1.32,3.69-4.31Zm-109.97,261.74c.29-2.64-.55-3.75-2.3-3.52-1.84.25-4.36-.53-5.08,2.2-.62,2.35,1.05,3.35,2.94,3.51,2.03.17,4.08.17,4.44-2.2Zm191.47-215.08c-2.23-3.27-4-4.96-7.41-4.64,1.77,3.47,4.07,3.91,7.41,4.64Zm1.81,79.07c.53.28,1.04.78,1.49.72.54-.07,1.84.05,1.07-1.33-.19-.34-1-.44-1.48-.35-.38.07-.7.6-1.08.96Zm-23.91-81.25l.05-.7-.7.28.65.42Zm-103.8-208.17c.17-.12.44-.21.5-.38.07-.22-.04-.5-.07-.76-.26.16-.52.33-.78.49.12.22.24.43.36.65Zm184.65,271.55l-.33.48.52.08-.19-.56Zm-240.21-184.53l-.27.53.44.05-.17-.58Z"/>
  <path class="cls-7" d="m344.65,366.16c12.16,11.04,19.02,26.14,25.48,41.51,2.08,4.94-1.95,5.82-4.5,7.58-9.53-3.82-17.62,2.31-26.25,4.73-8.72,3.82-12.26,13.76-18.96,20-1.94,1.8-3.37,4.93-2.71,7.79,2.51,10.93-.48,22.46,3.16,33.21-2.57,2.73-2.07,4.63,1.26,5.77.21,2.56.41,5.13.62,7.69-4.04,6.71-7.04-1.84-11.08-.95-6.79,1.5-13.57,2.88-20.32,4.7-6.79,1.82-10.5,4.88-10.97,13.41-.53,9.7-5.69,12.5-13.01,7.75-4.26-2.76-8.54-3.65-13.27-3.49-11.55.37-23,2.95-34.62,2.05-3.46-.27-7.35,1.39-7.51,5.09-.52,12.19-8.1,10.52-14.94,10.28-6.65-.24-12.15,1.06-14.14,9.42-.68,2.85-2.82,3.88-5.33,4.13-6.32.62-12.55,3.18-18.94,1.97-16.17-3.07-19.19,17.85-31.71,21.4-.57.16-1.02,2.35-.95,3.56.42,7.4-3.53,8.25-8.87,8.14-11.59-.24-23.19.04-34.79-.11-7.11-.09-11.97,2.55-12.2,11.34-.12,4.6-2.25,6.22-6.08,6.14-4.35-.1-8.7-.03-13.05-.02-3.54,0-6.24-1.22-6.96-5.61-1.15-7.02-5.69-8.01-11.08-7.97-10.14.09-20.29-.09-30.44-.16.02-45.89.04-91.77.06-137.66,6.53-1.26,11.46,3.49,17.13,5.49,23.63,8.35,47.89,4.98,72,4.32,3.93-.11,6.54-2.3,7.84-6.37,1.27-3.98,3.53-7.35,7.43-6.91,16.97,1.92,30.48-6.57,43.31-17.2,5.9-4.89,12.27-5.34,18.97-3.34,4.65,1.38,8.51,1.24,11.19-4.06,1.91-3.78,5.24-4.31,8.88-4.84,7.38-1.08,14.31-2.76,19.4-10.47,3.98-6.02,11.77-3.96,17.68-5.8,17.19-5.34,35.02-8.14,51.03-17.71,2.55-1.52,5.23-2.77,8.24-2.71,4.08.08,8.07.47,9.69-5.52.77-2.85,3.9-2.11,6.15-2.32.29,6.1,4.91,5.36,5.65,2.32,1.92-7.9,5.97-13.18,11.69-17.5,10.53-1.96,17.61,6.14,25.82,10.95Z"/>
  <path class="cls-1" d="m576.34,242.23c19.73-5.61,39.97-5.69,60.1-7.26,10.49-.82,20.92-2.68,31.37-4.19,4.37-.63-.49-4.26,1.37-5.79,5.75,1.07,11.85-1.97,17.36,1.88-1.04,1.96-1.31,3.08,1.06,4.69,1.59,1.08,4.86-.6,4.91,3.19-10.31,3.87-21.25,3.73-32,4.8.43,3.02,1.75,3.2,2.76,3.22,24.67.51,49.34.94,74.01,1.42,2.47.05,4.65-.15,5.05-3.6.91,0,1.82.01,2.72.02,3.35,6.82,9.83,5.4,14.73,5.57,19.54.67,38.8,6.21,58.47,4.15.86-.09,1.74.02,2.6.13,15.96,2.04,31.95,3.6,48.04,3.22,17.43-.71,34.69,3.97,52.16,2.12,20.47,2.75,41.08,2.51,61.62,3.79,9.34.58,18.62,3.13,27.93,3.13,9.19,0,16.33,7.52,25.39,6.92,0,0,.01.01.01.01,1.9,3.16,3.05,5.83-2.19,5.82-4.59-.01-9.18.25-13.77-1.88-.08.9-.16,1.81-.25,2.71,6.65,1.93,13.23,4.26,19.97,5.67,6.88,1.45,13.01,3.88,17.73,9.97.97,1.25,3.76,1.18,2.64,3.82-.85,2-3.02,1.25-4.67,1.34-9.26.49-17.81-3.6-26.75-5.14-2.22-.38-4.45-.76-6.67-1.13-9.91-4.07-19.64-9.16-30.9-7.12,9.28,5.47,18.85,9.28,29.19,10.4,7.4,2.93,14.88,5.65,22.16,8.9,2.89,1.29,7.64,2.69,5.61,7.59-1.6,3.85-5.23,1.76-8.14.34-1.21-.59-2.81-.19-4.23-.24-7.04-2.3-14.04-4.89-21.54-4.09-1.06.11-3.36-1.08-2.74,1.84.39,1.83,2.23,1.67,3.63,1.88.15,2.95,1.45,4.96,3.96,5.97-1.87,3.97-5.08,1.71-7.68,1.93-9.3.81-18.19-3.56-28.12-3.93,2.51,4.29,9.56,2.16,7.57,9.4-1.24.2-2.48.39-3.72.59-7.9-1.91-15.87-2.73-23.95-2.02-18.74.04-37.45-.56-56.02-3.74-8.59-.05-17.18-.09-25.78-.14-3.72-1.71-7.84-5.79-9.37,2.75-.38,2.12-2.88,2.51-4.9,3.21-10.34,3.58-23.13-1.37-30.99,10.89-9.03-1.16-17.26,3.8-26.08,4.22-3.73.18-7.46.41-11.18.62-1.15-.26-2.31-.53-3.47-.79-3.4-1.81-6.78-6.11-10.27-.15-1.07.09-2.15.19-3.22.28-6.84-3.96-14.25-4.05-21.68-4.02.05-.61-.16-1.09-.62-1.42-6.87-5.45-14.44-8.48-22.96-8.74-10.65-.32-10.64-.45-7.2,11.25-4.57-1.17-8.78-1.1-12.13,2.95,6.1,5.12,13.56,4.34,18.35,1.31,6.3-3.98,9.6-.88,13.91,2.16.54,1.33,1.08,2.66,1.62,3.99-.46,1.44-.93,2.89-1.39,4.32-4.12-4.62-11.69-6.97-14.02-3.47-6.24,9.35-12.75,1.87-18.92,2.63-1.69.21-3.62-2.23-5.17.53.24,5.29,6.9,4.78,7.3,11.37-9.87-5.64-17.37,6.17-27.14,3.05-2.41-.77-4.92,2.21-1.62,5.63,1.6,1.66,17.34,4.83,18.92,3.5.59-.49,1.11-1.58,1.1-2.39-.06-4.95,2.76-7.13,6.05-4.97,4.07,2.67,6.3-3.2,9.54-1.32,2.35,1.36,2.68,4.06,2.41,6.76-.3,3.05-2.27,2-3.92,1.95-3.17-.1-6.34-.03-10.53-.03,4.17,5.82,3.11,7.26-2.79,7.86-5.46.56-8.26-5.05-12.65-4.91-10.11.33-20.01-.99-29.88-2.95-4.86-.96-7.58,4.01-11.79,5.04-.81.2,1.11,5.04,2.67,7.37,10.24-9.88,36.65-6.94,44.53,6.85-20.32-8.17-39-2.46-58.76,1.44,9.16-8.4-.02-17.6,2.86-25.66.2-.57-1.41-1.44-1.96-2.02-6-6.3-13.3-8.99-20.98-11.68-4.84-1.69-11.83-4.08-8.79-13.4.37-1.15-9.54-12.75-10.31-13.91-4.26-6.36-11.74-6.85-16.88-12.67-6.02-6.8-13.36-12.5-19.08-19.93-1.28-1.66-2.12-3.19-4.02-1.5-1.43,1.26-.86,2.71-.01,4.23,4.17,7.48,6.68,16.34,15.46,19.6,4.06,1.51,4.05,3.32.07,6.92-5.56,5.02-3.64-5.36-8.63-3.84-3.89,1.18-8.75-5.57-10.5-10.78-2.09-6.21,1.49-15.78-9.2-16.09-.9-.03-2.81-4.09-2.36-5.53,1.47-4.61-.44-5.34-3.63-4.89-3.2.45-4.63-1.57-4.23-4.36.42-2.92,3.18-2.24,5.09-2,3.14.4,6.39,3.68,9.53-.74-3.71-2.98-8.08.01-12.21-2.48,3.03-1.76,5.75-3.29,8.44-4.9,9.87-5.9,14.7-17.37,22.59-25.47.27-.28-.02-1.24-.05-1.88Zm29.82,58.4c2.61,1.54,5.2,3.71,8.15,1.05.39-.35.38-2.22-.03-2.58-2.84-2.5-4.48,3.11-7.31,1.5-.21-.12-.55.03-.83.05-9.07-4.21-18.19-8.12-28.26-5.45,9.14,3.81,18.61,5.25,28.28,5.43Zm38.51-46.62c-1.87-2.41-1.83-5.31-2.46-8.1-.97-4.31-3.99-5.05-7.43-3.73-2.16.83-5.87-.13-5.31,4.42.44,3.6,2.7,5.27,5.99,5.64,3.09.34,6.15,1.16,9.22,1.77Z"/>
  <path class="cls-1" d="m399.41,310.62c3.26-7.09,10.5-5.01,15.41-8.3,5.2-2.78,8.56-1.23,9.84,5.19-1.9-.43-3.97-1.18-3.72,2.44-6.48,5.32-13.49-2.02-20.06,1.04-.46-.26-.95-.38-1.46-.38Z"/>
  <path class="cls-7" d="m692.52,234.76c-.05-3.79-3.33-2.11-4.91-3.19-2.37-1.62-2.1-2.73-1.06-4.69,3.44-4.73,7.98-.72,11.87-1.85,0,0-.01-.01-.01-.01-.7,3.14-.96,6.28.11,9.4-2,.12-4,.23-5.99.35Z"/>
  <path class="cls-1" d="m459.21,331.23c-2.04-1.27-5.15-1.42-4.54-5.43.43-.27.87-.53,1.3-.8-.34-.19-.68-.39-1.02-.58-.03.51-.07,1.03-.1,1.54-5.28.82-6.5-3.15-7.27-7.65,5.39-.64,10.89-1.71,14.74,4.26-1.24,2.8-4.67,4.63-3.1,8.67Z"/>
  <path class="cls-6" d="m459.21,331.23c-1.56-4.04,1.86-5.87,3.1-8.67.74,0,1.48-.01,2.23-.03,1.51,4.4,3,1.73,4.49-.02.75-.12,1.49-.24,2.24-.36-.23,9.27-5.23,10.68-12.06,9.08Z"/>
  <path class="cls-1" d="m571.92,230.84c-5.73-1.55-6.44,5.87-10.5,7.31-.15-.62-.39-1.19-.7-1.73,1.45-5.22-1.57-3.8-3.96-3.32l-.27-.25c-.62-2.34,2-1.94,2.36-3.47,3.43-2.5,9.38,3.84,11.27-4,2.87-.54,4.81.34,4.92,4-1.04.48-2.07.97-3.11,1.46Z"/>
  <path class="cls-1" d="m664.85,224.57c-2.96,1.12-6.96-1.42-8.94,3.35-.92,2.2-2.91,3.26-4.99,2.54-3.09-1.08-3.01-4.13-2.85-7.05,5.62-.2,11.32-1.63,16.77,1.17Z"/>
  <path class="cls-1" d="m480.64,324.06c0,1.59-.13,3.18,0,4.75.2,2.28-.66,3.98-2.61,3.75-1.28-.15-3.46-.68-2.78-3.54.55-2.28-.21-4.34-1.45-6.19,2.28.41,4.56.82,6.84,1.22Z"/>
  <path class="cls-3" d="m570.1,225.38c-1.89,7.84-7.84,1.51-11.27,4,2.32-6.33,7.1-4.08,11.27-4Z"/>
  <path class="cls-6" d="m571.92,230.84c1.03-.49,2.07-.98,3.11-1.46,1.5.05,2.99.09,4.48.14-2.45,1-4.52,4.79-7.59,1.32Z"/>
  <path class="cls-6" d="m420.93,309.95c-.25-3.62,1.83-2.87,3.72-2.44.06.93.13,1.86.19,2.78-1.3-.11-2.61-.22-3.91-.33Z"/>
  <path class="cls-6" d="m437.47,314.8c-1.88,1.65-3.6,1.52-5.14-.59.03-.59-.01-1.18-.14-1.75,0,0-.37-.51-.37-.51,1.88.95,3.77,1.9,5.65,2.85Z"/>
  <path class="cls-6" d="m556.48,232.85s.27.25.28.25c.17.33.21.67.14,1.04-.81.61-1.63,1.22-2.44,1.82-.68-.88-1.36-1.76-2.05-2.64,1.36-.16,2.72-.31,4.07-.47Z"/>
  <path class="cls-1" d="m469.04,322.52c-1.49,1.75-2.98,4.42-4.49.02,1.49-.99,2.99-.59,4.49-.02Z"/>
  <path class="cls-1" d="m445.89,317.82c-1.76.23-3.74,1.38-4.73-1.47,1.67.11,3.57-.67,4.73,1.47Z"/>
  <path class="cls-1" d="m483.39,322.59s.21.14.21.14c0,0-.21-.14-.21-.14Z"/>
  <path class="cls-6" d="m576.34,242.23c.03.64.32,1.61.05,1.88-7.89,8.1-12.72,19.57-22.59,25.47-2.69,1.61-5.41,3.14-8.44,4.9,4.13,2.49,8.49-.5,12.21,2.48-3.14,4.42-6.39,1.15-9.53.74-1.91-.25-4.67-.92-5.09,2-.4,2.78,1.03,4.81,4.23,4.36,3.18-.44,5.1.29,3.63,4.89-.46,1.44,1.46,5.5,2.36,5.53,10.69.31,7.11,9.88,9.2,16.09,1.75,5.21,6.61,11.96,10.5,10.78,4.98-1.52,3.07,8.87,8.63,3.84,3.98-3.59,3.98-5.41-.07-6.92-8.78-3.26-11.29-12.12-15.46-19.6-.85-1.52-1.41-2.96.01-4.23,1.91-1.69,2.74-.16,4.02,1.5,5.72,7.43,13.06,13.13,19.08,19.93,5.14,5.81,12.62,6.31,16.88,12.67.78,1.16,10.69,12.76,10.31,13.91-3.04,9.32,3.94,11.7,8.79,13.4,7.68,2.69,14.98,5.38,20.98,11.68.55.58,2.16,1.45,1.96,2.02-2.88,8.07,6.29,17.26-2.86,25.66,19.76-3.89,38.43-9.6,58.76-1.44-7.88-13.8-34.29-16.74-44.53-6.85-1.57-2.33-3.48-7.17-2.67-7.37,4.21-1.02,6.92-6,11.79-5.04,9.87,1.95,19.77,3.27,29.88,2.95,4.39-.14,7.19,5.47,12.65,4.91,5.9-.61,6.96-2.04,2.79-7.86,4.2,0,7.37-.07,10.53.03,1.65.05,3.61,1.1,3.92-1.95.27-2.7-.07-5.39-2.41-6.76-3.24-1.88-5.47,3.99-9.54,1.32-3.28-2.16-6.1.03-6.05,4.97,0,.81-.51,1.89-1.1,2.39-1.58,1.33-17.32-1.84-18.92-3.5-3.3-3.42-.79-6.4,1.62-5.63,9.77,3.12,17.27-8.69,27.14-3.05-.4-6.59-7.07-6.08-7.3-11.37,1.55-2.76,3.48-.32,5.17-.53,6.17-.76,12.68,6.72,18.92-2.63,2.33-3.49,9.9-1.15,14.02,3.47.4,5.51,1.7,11.36-4.42,14.38-5.29-12.11-14.36-6.05-23.05-6.59,4.38,5.24,11.24,1.85,14.1,7.88-.11,7.09-2.31,11.26-9.73,10.93-6.67-.3-9.33,7.09-13.52,11.23-3.28,3.24-5.88,7.27-10.77,6.4-5.95-1.06-5.36,9.54-11.54,7.68-1.37-2.02-.23-6.69-4.16-5.88-5.04,1.05-10.42-2.02-15.11,1.6-.68.53-.83,2.31-.8,3.49.05,1.72,1.25,1.44,2.46,1.48,5.4.18,10.79.58,16.18.9-.94,6.15-1.57,12.39-3.86,18.18-6.9,4.3-15.64-.47-22.19,5.59-.99-.57-1.97-1.14-2.96-1.72-2.24-9.6,4.37-5.92,7.43-5.49,12.58,1.78,13.05,1.41,9.31-11.8-.24-.83-.45-1.67-.68-2.51-.31,4.32-.47,8.03-5.85,8.24-7.73.3-6.41-6.79-7.69-12.18-5.58,6.62-10.47,11.63-18.03,4.35-2.07-1.99-6.02-1.57-9.11-2.26-6.28-7.1-14.07-13.16-21.53-17.03-9.13-4.74-14.82-12.78-22.35-18.85-.4-.33-1.24-.81-1.28-.75-8.05,12.61-8.23-2.37-11.6-4.5-11.94-7.53-24.56-9.18-37.29-5.21-10.79,3.37-28.82-.35-35.28-10.8,7.37,4.77,12.95,2.75,18.23-1.17,2.31-1.72,7.63-1.77,2.48-7.39-2-2.18.98-3.26,3.25-3.33,4.52-.16,9.04-.59,13.73-2.31-10.55-.43-18.31-11.12-29.62-8.44,7.54-7.1,20.25.31,25.31-12.39-5.25-4.15-12.6,1.05-17.67-4.53,1.58-3.58,5.11-.54,7.38-3.54-3.62-.36-6.82-.67-10.46-1.03,1.27-4.01,4.65-2.37,6.67-3.76-7.84-6.64-7.97-12.28-.22-16.79,2.51-1.46,3.43-1.64,3.01-5.79-.68-6.68,11.21-13.76,20.54-13.11-.34-2.56-4.77-4.44,1.13-7.69,8.35-4.6,18.39-6.51,24.78-15.23.13-.18.6-.22.82-.1.22.12.33.51.49.78Zm31.53,103.05c1.77-.4,4.18-2.12,2.65-3.39-4.04-3.38-7.66-8.99-14.07-6.5,4.32,2.72,5.28,10.11,11.47,9.82l-.06.07Zm-61.18-20.81c4.5,1.99,8.75,2.77,11.49-4.12-4.73-.14-8.12,1.82-11.49,4.12Zm35.12,14.21c2.07,1.22,4.01,1.47,5.74-.2.26-.25-.17-2.18-.44-2.23-2.1-.39-3.73.8-5.29,2.43Zm-.8-7.28c-.71.89-1.64,1.56-1.61,2.15.04.62,1.01,1.61,1.58,1.61.57,0,1.56-.97,1.61-1.59.05-.59-.88-1.28-1.58-2.18Zm62.76,42.31c.02-.32.04-.64.05-.96-.16.22-.41.41-.46.66-.06.29.05.62.09.93l.32-.63Z"/>
  <path class="cls-1" d="m726.14,525.79c1.88-.13,3.75-.26,5.63-.39,4.99,3.34,9.14,8.21,14.94,10.06,4.45,8.04,12.89,8.72,19.36,13.03,10.58,5.65,20.29,13.18,31.36,17.78,2.37.98,4.46,2.79,7.17,1.69,10.45,9.89,23.97,12.42,35.96,18.56-2.01.7-3.99,1.41-8.04,2.85,7.84-.51,11.42,10.98,18.34,3.25,1.82,1.11,3.63,2.21,5.44,3.31-2.66,1.68-5.32,3.37-7.98,5.06-1.5-.08-2.99-.16-4.49-.24-3.71-.95-7.41-1.91-11.12-2.86-5.25-3.11-9.67-8.36-16.32-7.83,0-.01.09-.51.09-.51l-.06.35c.23,1.03.46,2.06.69,3.09-.52.74-1.03,1.47-1.55,2.21-5.85-5.99-11.93-11.56-20.15-12.96-3.61-5-9.99-2.96-13.93-6.52-8.99-8.13-18.44-14.39-30.53-14.48-1.86-.01-4.92-2.44-5.36-4.35-3.05-13.15-15.46-18.85-19.47-31.08Zm82.03,53.1c7.14,5.73,8.24,6.07,14.94,4.28-5.23-1.96-9.37-5.01-14.94-4.28Z"/>
  <path class="cls-1" d="m663.4,428.55c6.55-6.06,15.29-1.29,22.19-5.59.04.88.08,1.76.13,2.64,0,0,.12-.1.12-.1-.61.43-1.21.86-1.82,1.3-2.23-.17-3.39,1.21-4.87,3.04-3.77,4.67-3.43,11.31-6.84,16.03-5.93-1.77-11.82-2.28-18.02-1.37-2.65.39-2.46,3.33-4.48,3.53-1.1-1.94-2.66-1.95-4.38-1.3-4.28.22-8.22-.83-11.59-3.92-1.63-1.06-1.54-2.95-1.79-4.67,4.93.16,6.73-2.31,7.01-7.97.44-8.68-.93-16.84-3.24-24.96,3.09.68,7.04.26,9.11,2.26,7.56,7.27,12.45,2.26,18.03-4.35,1.28,5.38-.03,12.48,7.69,12.18,5.38-.21,5.54-3.92,5.85-8.24.23.84.44,1.68.68,2.51,3.74,13.2,3.28,13.58-9.31,11.8-3.06-.43-9.67-4.12-7.43,5.49-.02,4.44-3.88,3.93-5.95,5.73-1.62,1.42-2.03,4.09-.37,4.48,5.73,1.36,11.77,3.69,18.64-2.13-5.22-.3-9.14-.75-9.37-6.37Z"/>
  <path class="cls-3" d="m990.84,323.74c1.99-7.24-5.06-5.11-7.57-9.4,9.93.36,18.82,4.74,28.12,3.93,2.6-.23,5.81,2.04,7.68-1.93,2.85.8,4.08,3.23,4.99,6-11.06,2.91-22.04,5.22-33.22,1.41Z"/>
  <path class="cls-6" d="m672.31,445.86c3.4-4.72,3.07-11.36,6.84-16.03,1.47-1.83,2.63-3.2,4.87-3.04,1.66,3.91,2.47,7.85.19,11.84-1.66,2.9-1.63,5.39,1.33,7.22-.04,2.65-.08,5.3-.13,7.95-2.75.72-2.74,5.26-5.96,5.31-.61-2.37-1.22-4.74-1.83-7.11.49-1.69,3.43-2.36,2.33-4.29-1.76-3.09-5.2-.47-7.64-1.84Z"/>
  <path class="cls-3" d="m1020.36,294.13c-10.34-1.12-19.91-4.93-29.19-10.4,11.26-2.04,20.99,3.04,30.9,7.12-.57,1.09-1.14,2.19-1.71,3.29Z"/>
  <path class="cls-6" d="m760.21,335.44c7.43-.03,14.85.06,21.68,4.02.22.45.41.92.56,1.41-6.2,1.91-12.4,3.82-18.58,5.73,2.76-5.34-4.59-6.56-3.67-11.16Z"/>
  <path class="cls-1" d="m736.43,366.94c-2.86-6.03-9.72-2.63-14.1-7.88,8.7.54,17.76-5.52,23.05,6.59-2.43,5.21-6.28-1.82-8.95,1.29Z"/>
  <path class="cls-2" d="m760.21,335.44c-.92,4.6,6.42,5.82,3.67,11.16-4.28-1.49-8.51-1.72-12.69.34-.54-1.33-1.08-2.66-1.62-3.99,3.25-3.1,5.79-7.21,10.03-8.94.46.34.67.81.62,1.42Z"/>
  <path class="cls-3" d="m1015.11,310.36c-1.4-.21-3.23-.06-3.63-1.88-.63-2.92,1.68-1.73,2.74-1.84,7.5-.8,14.5,1.79,21.54,4.09-3.21,3.8-6.87,3.4-10.8,1.61-3.13-1.42-6.41-2.27-9.85-1.98Z"/>
  <path class="cls-2" d="m766.08,548.49c-6.47-4.31-14.91-4.99-19.36-13.03,7.3,2.78,15.65,3.64,19.36,13.03Z"/>
  <path class="cls-2" d="m685.54,445.84c-2.96-1.83-2.99-4.31-1.33-7.22,2.28-3.98,1.47-7.92-.19-11.84.6-.43,1.21-.86,1.82-1.3.29.14.57.29.84.47.83,6.71,3.02,13.53-1.13,19.89Z"/>
  <path class="cls-3" d="m881.37,318.42c8.59.05,17.18.09,25.78.14-.46,1.63-1.42,3.45-2.9,2.95-7.48-2.59-15.51.18-22.88-3.09Z"/>
  <path class="cls-3" d="m963.17,322.31c8.08-.71,16.05.11,23.95,2.02-8.17,2.09-16.03-.4-23.95-2.02Z"/>
  <path class="cls-2" d="m782.46,340.87c-.15-.49-.34-.96-.56-1.41,1.07-.09,2.15-.19,3.22-.28,3.42.05,6.85.1,10.27.15,1.16.26,2.31.53,3.47.79-5.4,2.06-10.91,1.14-16.39.75Z"/>
  <path class="cls-6" d="m686.67,425.96c-.27-.17-.55-.33-.84-.47,0,0-.12.1-.12.11.42-.25.74-.13.96.36Z"/>
  <path class="cls-1" d="m486.84,714.65c.43-6.93,5.91-10.94,7.99-17.1,1.25-3.69,1.78-7.04,1.8-10.76,10.18.36,12.07-1.87,10.61-12.32-.21-1.52.04-3.12.08-4.68,1.27,1.08,1.61,4.22,4.35,1.22,6.41-7.05,10.75-17.13,21.09-18.82.34-.05.46-1.75.67-2.67.66.25,1.33.49,1.99.74-.88,4.97,1.75,3.61,4.07,2.8,3.01-2.08,5.03,7.07,6.6,1.92,1.49-4.9,5.24-6.86,6.92-10.9,5.63-3.16,8.24-8.27,7.91-15.27,2.18-5.41,3.67-11.35,8.92-14.4-.39,8.85,4.41,17.73.17,26.49-1.95,4.03.48,3.29,2.41,3.43.34.93.68,1.86,1.01,2.78-2.5.65-7.08-.25-5.48,4.59,1.77,5.33-.14,8.8-2.74,13.13,3.94-2.33,8.12,2.71,11.5-1.66,1.66-.07,3.52,3.67,4.99-.32,1.69.16,3.38.32,5.06.48-.21,2.08-4.53,2.48-2.38,4.92,2.06,2.33,4.75,1.02,6.42-1.8,1.77.73,5.07-1.06,4.37,3.65-1.11,7.58-.06,15.82-5.66,21.95.25-8.12-7.97-8.7-10.26-14.28-1.71-4.19-2.77-10.1-7.68-8.01-5.34,2.27-10.17,6.74-14.38,11.23-1.71,1.82,1.29,3.22,3.35,3.67,7.11,1.58,13.81,4.3,19.14,10.02,2.5,2.69,5.24,2.09,8.09,1.6,7.74,7.89-.65,14.18-1.69,21.2-1.14-.16-3.18-.07-3.27-.51-2.2-10.29-7.94-16.49-17.09-18.9-1.68-.44-1.08-1.61-1.1-2.86-.08-4.99-3.04-5.75-6.87-6.66-5.48-1.31-10.78-3.84-8.33-12.43.76-2.65-.95-5.38-3.03-3.86-5.94,4.34-12.52,1-18.51,2.89-5.46,1.72-12-.26-17.07,5.74,1.51.54,2.28,1.12,2.98,1.04q19.19-2.4,19.29,18.32c0,.97.1,1.94.04,2.9-.26,3.85,2.18,5.86,4.76,5.46,13.77-2.14,24.71,4.52,35.94,12.07,3.26,2.2,7.92,8.94,13.45,2.77,2.44,1.4,3.85,3.15,6.9-.85,3.22-4.21.45-11.39,6.36-13.41,4.1.16,3.87,6.64,8.67,6.72,5.4.08,9.27,4.47,12.28,9.26,6.3,10.03,16.04,17.26,19.43,29.7.35,1.28,1.88,2.85,3.38,1.44.63-.59.9-2.53.52-3.42-2.07-4.88-4.57-9.55-6.58-14.45-2.97-7.25-10.62-11.99-9.34-21.51,4.12-1.59,3.9-6.52,4.47-9.61.55-3.02-.84-6.47,2.13-8.89,1.64,5.44,7.98,8.17,6.33,16.01-.53,2.52,1.95,8.96,7.53,8.74,2.62-.1,2.31,2.03,2,3.98-.86.49-2.42.04-2.23,1.91.04.38.87,1.03,1.14.93,1.34-.51,1.15-1.77.94-2.99,3.71-.28,4.35,2.58,3.75,5.46-1.63,7.91.63,10.83,7.86,8.74.72-.21,1.84,1.26,2.77,1.95,1.34,4.59,1.75,8.95.29,13.87-3.11,10.43-1.36,21.51.46,31.58,3.02,16.65-3.62,27.54-13.24,37.88-3.72-4.34-9.39-3.07-13.64-5.88-2.57-1.13-7.28-4.74-7.36-1.23-.11,4.5.36,11.23,5.65,14.24,1.27,1.89,2.53,3.79,3.8,5.68-3.74,12.62-14.18,15.86-23.6,17.91-8.74,1.9-13.92,6.36-17.6,14.51-22.17,2.03-44.36.3-66.54.58.96-9.08-1.73-17.33-4.64-25.53-5.01-4.17-8.42-12.63-16.79-7.78-2.83,7.34,2.64,14.46.47,21.78-2.26.02-4.68-3.67-6.78.35l-.75-.14c-.53-1.28-.11-3.1-1.74-3.75-7.73-8.66,1.16-13.62,4.08-19.69-1.91-1.32-3.22-.58-4.61-.14-6.27,1.97-8.35.79-6.04-7.3,1.79-6.25,7.46-10.66,6.6-17.89-.74-6.26,2.83-8.28,7.17-10.05,1.35-.55,1.43-2.62,1.15-4.7-1.38,0-2.8.14-4.2-.03-2.69-.33-6.41,1.49-7.57-2.55-1.37-4.76,3.5-4.15,5.41-6.01,2.56-2.51,5.84-4.09,8.74-6.19,1.74-1.26,3.97-4.06,2.14-5.32-7.13-4.92-1.6-8.23.6-12.18,1.54-2.78,3.63-5.65.89-9.97-7.4,8.81-17.4,14.19-19.24,27.17-.55,3.92-3.94,7.82-4.41,10.35-1.44,7.78-10.39,15.64.4,25.34-5.48-1.26-7.67,1.82-9.66,2.78-5.62,2.71-7.55,7.41-10.15,12.24-6.5,12.05-7.59,25.87-10.33,39.14-2.38-.08-4.77-.16-7.16-.23,5.26-14.84,8.31-30.95,16.9-43.95,10.33-15.65,15.43-33.58,20.32-51.63,1.77-6.54,2.56-13.77-6.3-16.92-5.29-1.88-6.88-7.59-5.65-12.97.67.48,1.33.97,2.02,1.41.02.02.31-.48.47-.74-.78-.31-1.56-.61-2.34-.92-.17-1.02-.33-2.03-.49-3.05,3.54-4.05,6.55-8.12.49-12.63.02-.41-.05-.8-.21-1.17.17-.58.29-1.17.35-1.77,4.81-3.03,7.03-7.03,3.9-13.01Zm131.52,41.61l-.36-.46s.31.52.31.52l1.6.44c-.52-.17-1.03-.33-1.55-.5Zm-31.44-1.79c.43.38-.32,1.97,1.1,1.35-.33-.48-.67-.96-1-1.44-.08-3.63-1.96-5.47-4.96-6.2.94-2.36,1.99-4.67.13-7.14-8.67-11.52-22.02-15.66-34.89-10.76.17.24.3.56.51.71,10.67,7.23,24.08,8.13,33.6,18.03,1.91,1.73,2.71,4.86,5.52,5.46Zm-26.73,62.2c2.61-7.57.08-10.55-6.88-9.56l-.56.04c-3.13-.67-6.52-.08-9.33-2.34l.05.07c-.47-4.22-3.06-4.35-5.98-3.86-2.02-.73-4.46.52-6.18-1.64-2.1-2.75-4.64-2.4-7.29-1.26-1.75.8-4.33-.59-5.5,3,8.9-1.92,15.66,3.23,22.72,7.35-2,9.8,2.58,12.29,10.21,11.39,3.56,1.17,6.45.02,8.73-3.18Zm52.89-70.02c.64,1.66,1.12,3.59,3.32,2.99.24-.06.46-1.45.38-1.49-1.17-.61-2.39-1.1-3.6-1.62-.95-6.63-5.87-8.62-10.37-11.21-3.58-2.06-3.55,1.36-4.35,3.39-1.22,3.1.27,2.78,2.56,3.27,4.14.88,8.05,3.04,12.06,4.67Zm-79.43,77.36c.34-4.35-.65-7.49-5.34-7.22-.65-6.27-4.71-7.18-8.64-5.29-5.36,2.57-4.99,8.51-2.94,13.12,2.66,5.96,7.24,10.56,11.79,14.92,1.9,1.83,4.21,2.1,6.28.33,1.79-1.53,1.77-3.82,1.43-6.13-.5-3.36-4-5.73-2.58-9.72Zm39.97-61.13c-5.54-9.99-13.82-15.36-24.05-17.29-1.26-.24-2.33-.36-1.63,1.73.3.9-1.38,1.94.69,2.89,8.41,3.84,15.59,10.56,25,12.68Zm8.02,40.21c-1.07-3.35-3.28-7.75-7.73-7.33-3.03.29-8.49.67-7.53,6.93.79,5.17,5.13,7.15,9.05,7.3,2.43.1,6.89-.25,6.22-6.9Zm48.29-26.52c2.83,8.36,5.46,16.1,8.08,23.84l2.41-1.17c-6.95-5.72,1.12-18.39-10.49-22.68Zm-99.75-76.7c-6.46-10.76-8.52,3.3-13.22,1.6q5.76,3.42,13.22-1.6Zm-13.56,36.17c3.57-2.32,7.15-4.64,10.72-6.97-5.11-.58-9.79-.36-10.72,6.97Zm72.01-66.92c-.87,3.04-1.42,3.94-1.22,4.51.25.68,1.13,1.08,1.74,1.6.3-.74.84-1.49.83-2.22-.02-.84-.54-1.66-1.35-3.89Zm-47.85-8.57c-.79-.62-1.38-1.26-2.1-1.59-.33-.15-.88.28-1.33.45.55.69,1.02,1.5,1.69,1.99.24.18.95-.44,1.74-.85Z"/>
  <path class="cls-2" d="m962.94,680.17c4.54-12.3,23.37-19.96,36.48-14.84-11.79,6.09-23.71,11.74-36.48,14.84Z"/>
  <path class="cls-2" d="m813.54,723.06c16.45-5.96,33.4-7.4,50.56-6.93-4.46,6.47-11.29,3.28-16.82,4.35-9.23,1.79-18.87.99-28.1,3.96-1.87.6-4.04.5-5.64-1.37Z"/>
  <path class="cls-2" d="m641.53,839.33c-1.27-1.89-2.53-3.79-3.8-5.68,6.6-3.35-2.19-9.22,1.72-13.01,4.25,2.81,9.92,1.54,13.64,5.88-2.49,5.8-7.58,8.68-11.56,12.81Z"/>
  <path class="cls-2" d="m1016.91,664.44c.61-1.57,1.59-2.84,3.17-2.85,12.39-.06,24.78-.07,37.18-.01,1.57,0,2.59,1.23,3.24,2.77-14.53,1.07-29.06,1.21-43.59.1Z"/>
  <path class="cls-2" d="m717.62,738.4c9.59-4.14,19.09-8.83,29.81-6.89-4.01,9.64-12.64,4.23-18.83,6.91-3.18,1.38-7.29.07-10.99-.02Z"/>
  <path class="cls-2" d="m910.72,703.11c7.91-8.09,17.81-7.3,27.46-7.64-8.55,5.26-17.83,7.23-27.46,7.64Z"/>
  <path class="cls-2" d="m672.55,743.17c8.44-2.82,16.94-4.86,25.75-2.15-8.22,6.16-16.99,4.09-25.75,2.15Z"/>
  <path class="cls-2" d="m781.85,727.44c8-3.23,16.25-4.3,24.71-3.6-7.75,5.34-16.16,5.06-24.71,3.6Z"/>
  <path class="cls-1" d="m693.58,556.27c2.3-2.17-2.64-5.67,1.02-7.44,2.95-1.42,3.8,2.1,5.54,3.44,4.74,3.64,9.41,7.41,15.04,9.14,3.67,1.13,7.34,1.25,11.02-.37,1.92-.85,2.33-6.83,5.69-2.52,2.42,3.11,1.74,6.56-.9,9.43-3.79.28-7.85-1.12-12.27,2.25,8.23,9.78,18.64,14.41,27.81,20.91,2.64,1.87,5.5,5.13,9.44,3.33,7.2-.52,3.78-6.9,4.81-10.82,6.16-.72,11.05,7.5,17.73,3.14,1.1-.09,2.2-.18,3.29-.27-1.62,3.82.27,9.63-1.44,11.59-6.39,7.34-.39,11.36,2.46,16.08,2.27,3.75,5.5,6.76,7.91,10.42,2.68,4.08,5.66,5.03,9.55,2.5,8.54.45,15.24-11.7,25.95-3.57-8.35-.36-11.6,10.28-20.25,7.92-2.45-.67-4.74,3.07-4.98,6.7-2.06-.34-3.48,1.16-5.06,2.19-11.45-1.39-20.7-9.42-31.43-12.97-3.11-3.98-6.02-8.39-11.74-6.63-6.54-2.86-4.83,2.38-3.99,5.52,3.11,11.62,10.6,20.49,15.96,30.71.55,2.36,1.1,4.71,1.65,7.07-4.84.47-7.85-2.74-9.89-6.9-1.3-2.65-2.64-4.69-5.07-6.18-1.85-1.14-3.68-2.41-5.43-.98-1.52,1.24-1.05,3.6-.35,5.36,2.78,7.04-1.88,9.27-5.6,7.21-6.27-3.47-13.55-3.03-19.37-8.69-9.3-9.04-19.5-16.96-28-27.06-1.49-1.76-3.81-3.33-2.51-6.51,2.13.07,4.97,1.63,5.88-1.61.81-2.89-2.03-3.25-3.75-4.1-5.83-2.91-2.19-6.34-.46-9.67.93-.62,1.85-1.24,2.78-1.86,3.13-5.65,1.41-10.56-1.87-15.24-2.69-4.9-10.6-9.13-.74-15.35,2.52-1.59-.02-6.66.31-10.11.78-.58,1.55-1.17,2.32-1.75-.06-1.52,1.54-3.68-1.28-4.14l.22-.18Z"/>
  <path class="cls-2" d="m801,638.14c.24-3.62,2.53-7.37,4.98-6.7,8.65,2.36,11.9-8.29,20.25-7.92-10.71-8.13-17.41,4.02-25.94,3.56.6-2.65-.86-4.14-2.43-5.68-3.79-3.68-.85-9.63.63-9.94,8.32-1.77,10.07-9.2,13.09-16.06h-12.2l-.05-.06c1.86-5.54-6.78-7.2-3.9-13.12,8.23,1.4,14.31,6.97,20.16,12.96,1.96,3.02,4.45,2.41,7.22,1.46-1.4-2.57-3.48-3.23-5.67-3.66-.23-1.03-.46-2.06-.69-3.09l-.04.18c6.66-.54,11.08,4.71,16.32,7.81-.69,4.81-.66,10.07-7.26,9.65-2.5-.16-3.63,2.62-4.74,4.83-.91-2.85-2.52-4.32-5.34-4.12-.11,4.06,1.9,4.97,4.3,5.43,2.25,3.66,3.8,5.05,8.78,2.74,7.01-3.26,15.05-6.94,23.12-.74,2.5,1.92,5.84,4.15,9.56,3,3.29,3.6,6.47,7.35,9.92,10.73,2.16,2.11,4,4.25,1.96,7.24-1.87,2.75-4.5,3.65-7.66,1.89-4.42-2.46-7-6.41-8.47-11.48.75-1.67.56-3.61-1.01-3.91-5.76-1.1-11.6-1.85-17.53,1.18,3.18,4.52,7.49,3.53,11.16,4.56,2.16,7.49,7.23,12.12,12.66,16.56,2.42,1.98,5.52,4.28,3.52,8.7-1.75,3.87-4.67,2.96-7.53,2.04-3.1-1-5.78-.96-6.79,3.34-.74,3.19-3.02,3.35-5.42,3.58-5.8.56-12.74-5.75-17.24,3.41-.04.09-1.97-.97-3.01-1.49-.66-2.77-1.42-5.47-3.68-7.23-.12-8.87-1.71-16.07-12.12-13.33-1.61-4.51-4.82-6.21-8.93-6.32Zm42.53.36c-5.5-1.17-10.24-.4-14.69,2.26-.12.07.57,3.02,1.46,3.81,5.26,4.63,7.71-3.88,12.17-3.5.19.02.46-1.07,1.05-2.56Zm-31.02-32.9l-.34.54.57.07-.22-.61Z"/>
  <path class="cls-2" d="m586.77,663.36c-1.69-.16-3.38-.32-5.06-.48-.68-2.92,4.16-3.99,2.01-7.4-.73-1.16-2.05-1.9-2.91-1.11-1.95,1.8-5.64,2.5-4.19,6.93.19.57.08,1.26.1,1.89-3.38,4.37-7.56-.67-11.5,1.66,2.6-4.33,4.51-7.8,2.74-13.13-1.6-4.84,2.98-3.93,5.47-4.59,2.97,1.57,6.07,2.62,9.41,2.51,9.51,7.16,14.02,5.55,16.77-5.99,5.83-3.85,12.66-1.11,18.71-3.53,1.76,8.2,3.4,16.44,5.31,24.59,2.75,11.75,6.99,22.88,11.84,33.74-2.98,2.43-1.58,5.88-2.14,8.9-.57,3.09-.35,8.03-4.47,9.61-.73-4.69-2.9-8.31-6.49-10.9,1.73-1.44,1.13-3.39.96-5.28-.67-7.68-6.27-13.19-7.3-20.7-.95-.96-1.91-1.92-2.86-2.88-.13-5.43.97-12.67-7.28-6.13.38-4.34.76-8.67,1.14-13.01-5.42,10.09-5.34,21.42-7.54,32.16.05,3.54-2.19,7.45,1.32,10.45-.07.59-.02,1.17.13,1.74-.05,1.68-.09,3.35-.14,5.03-.2.58-.3,1.18-.29,1.8-5.91,2.02-3.15,9.19-6.36,13.41-3.05,4-4.45,2.24-6.9.85-.4-2-.79-3.99-1.18-5.98,1.04-7.02,9.43-13.32,1.69-21.21-.68-2.05.82-2.99,1.75-4.22,5.61-6.13,4.55-14.37,5.66-21.95.69-4.71-2.6-2.92-4.38-3.65-.72-2.05-2.11-3-4.03-3.12Z"/>
  <path class="cls-2" d="m764.75,656.96c-5.36-10.22-12.86-19.1-15.96-30.71-.84-3.15-2.55-8.39,3.98-5.53,3.14,3.91,4.9,10.85,11.75,6.63,10.73,3.55,19.98,11.58,31.43,12.97,3.63,1.71,5.79,4.45,5.14,9.15-2.53,8.62,4.26,5.63,7.31,7.29.42.55.84,1.1,1.26,1.65-1.44,2.65-3.8,4.89-1.86,8.66,1.39,2.7,3.29,6.3.05,8.62-3.11,2.23-6.81,1.25-9.83-1.06-2.58-1.98-4.71-4.75-7.36-6.57-3.05-2.09-6.42-4.03-7.52,2.57-.67,3.96-3.26,3.44-6.12,2.64-4.05-1.14-5.65-5.35-8.68-7.71,1.33-3.16,3-5.89,6.42-6.47.41.6.82,1.2,1.24,1.81-.04,0-.07-.01-.11-.02,1.08-.35,2.16-.7,3.24-1.05.25.73.4,1.99.78,2.09,1.43.37,1.6-.85,1.56-2.09,1.98-.82,4.53.79,6.69-2.48h-11.64c-3.78-5.49-7.84-.12-11.76-.38Z"/>
  <path class="cls-6" d="m861.16,618.68c-3.71,1.15-7.06-1.08-9.56-3-8.07-6.19-16.11-2.51-23.12.74-4.97,2.31-6.53.92-8.78-2.74.32-.46.66-.9,1.03-1.31,1.11-2.21,2.24-4.99,4.74-4.83,6.6.42,6.57-4.84,7.26-9.65,3.71.96,7.42,1.92,11.13,2.87-1.6.5-4.11.48-4.62,1.6-1.06,2.31,1.51,2.88,2.84,3.76,4.38,2.88,8.7,3.56,13.24-1.15-1.57-.7-2.59-1.24-3.66-1.6-1.33-.45-2.98-.25-3.32-2.37,2.66-1.69,5.32-3.38,7.98-5.06,3.57,3.03,8.68,3.89,10.47,9.35-1.8,1.79-4.91,2.45-4.42,6.27.49,3.79,3.6,3.81,5.85,4.63,2.11.77,4.5.6,6.77.84-4.19,4.9-9.42-.96-13.83,1.66Z"/>
  <path class="cls-6" d="m691.84,604.89c-1.73,3.33-5.36,6.77.46,9.67,1.72.86,4.56,1.21,3.75,4.1-.91,3.25-3.75,1.69-5.88,1.61-4.01.68-6.24-6.38-10.85-3.1-.54.07-1.09.14-1.63.21.47.56.94,1.12,1.41,1.68.05.99.11,1.99.16,2.99-3.66,1.61-6.02-2.65-9.34-2.58.18-1.27.37-2.54.55-3.81.61-4.42-.48-11.19,2.56-12.67,5.92-2.88,12.94-3.5,18.8,1.9Z"/>
  <path class="cls-1" d="m618.33,640.13c-6.05,2.42-12.88-.32-18.71,3.53,1.2-7.53,2.88-14.87,7.04-21.18,3.92,1.97,6.91,6.03,11.56,6.39,2.28,3.72,7.47,7.41.12,11.26Z"/>
  <path class="cls-7" d="m669.93,619.47c3.32-.07,5.67,4.19,9.34,2.58-6.99,4.77-14.33,6.27-21.9,2.11-3.63-2-7.25-1.58-10.97-1.39-.21-1.2-.42-2.4-.63-3.61,4.22-.19,8.44-.37,12.67-.56,0,0-.08-.02-.08-.02,1.42,1.78,2.78.95,4.14-.1,2.55-.33,4.73,2.78,7.44.99Z"/>
  <path class="cls-2" d="m874.99,617.02c-2.27-.24-4.66-.06-6.77-.84-2.25-.82-5.36-.84-5.85-4.63-.5-3.82,2.62-4.48,4.42-6.27,2.32,4.29,9.81,4.06,8.2,11.73Z"/>
  <path class="cls-6" d="m809.65,658.4c-.42-.55-.84-1.1-1.27-1.65,4.82-3.99,8.94,3.51,13.67,1.03,2.26,1.76,3.02,4.46,3.68,7.23-7.84,5.29-10.66-4.6-16.09-6.61Z"/>
  <path class="cls-6" d="m849.54,628.89c-3.68-1.03-7.99-.04-11.16-4.56,5.93-3.03,11.77-2.28,17.53-1.18,1.57.3,1.76,2.24,1.01,3.91-2.46.61-4.92,1.22-7.37,1.83Z"/>
  <path class="cls-6" d="m850.88,592.63c-6.92,7.73-10.5-3.76-18.34-3.25,4.04-1.44,6.03-2.15,8.04-2.85,3.66,1.58,7.77,2.19,10.3,6.1Z"/>
  <path class="cls-6" d="m764.75,656.96c3.92.25,7.98-5.12,11.76.38-.58.58-1.17,1.16-1.76,1.74-3.42.57-5.09,3.31-6.42,6.47-.64-.5-1.29-1-1.93-1.51-.55-2.36-1.1-4.72-1.65-7.07Z"/>
  <path class="cls-7" d="m679.1,619.07c-.47-.56-.94-1.12-1.41-1.68.54-.07,1.09-.14,1.63-.21-.08.63-.16,1.26-.22,1.89Z"/>
  <path class="cls-2" d="m868.91,253.7c-16.09.37-32.08-1.18-48.04-3.22-.86-.11-1.75-.22-2.6-.13-19.67,2.05-38.93-3.49-58.47-4.15-4.9-.17-11.38,1.25-14.73-5.57,8.44-4.43,16.88.4,25.35.21,14.11-.32,28.26,1.03,42.38,1.9,3.69.23,7.34,1.26,11.01,1.91,3.6,6.55,9.23,2.44,13.91,3.28,4.1.56,7.99,2.76,12.26,1.93,6.74-1.38,13.24-1.27,18.92,3.85Z"/>
  <path class="cls-2" d="m692.52,234.76c2-.12,4-.23,5.99-.35,1.89.66,3.78,1.32,5.67,1.98,1.46.04,2.93.09,4.39.13,8.84.07,17.68.2,26.52.18,3.06,0,5.65.71,7.25,3.9-.39,3.44-2.58,3.64-5.05,3.6-24.67-.48-49.34-.91-74.01-1.42-1.01-.02-2.33-.2-2.76-3.22,10.75-1.07,21.69-.93,32-4.8Z"/>
  <path class="cls-5" d="m1036.02,269.66c-9.06.6-16.21-6.93-25.39-6.92-9.31,0-18.59-2.54-27.93-3.13-20.54-1.28-41.15-1.03-61.62-3.79,7.77-7.53,17.15-4.12,25.32-2.95,20,2.86,40.07,4.03,60.13,4.87,9.48.4,17.64,5.7,26.85,6.56,2.5.23,2.54,3.07,2.64,5.35Z"/>
  <path class="cls-4" d="m754.22,230.74c-4.52-.41-8.39,1.76-11.3-2.12-.82-1.09.13-2.6,1.31-2.96,3.87-1.19,7.41-1,9.99,5.08Z"/>
  <path class="cls-4" d="m704.18,236.4c-1.89-.66-3.78-1.32-5.67-1.98-1.07-3.12-.81-6.26-.11-9.4,5.49.84,9.86,2.44,5.48,9.99-.02.5.08.96.31,1.39Z"/>
  <path class="cls-5" d="m849.98,249.86c-4.28.83-8.16-1.38-12.26-1.93-.03-1.15-.05-2.3-.08-3.46,4.28,1.34,10.81-3.75,12.34,5.39Z"/>
  <path class="cls-3" d="m837.64,244.47c.03,1.15.05,2.31.08,3.46-4.69-.85-10.31,3.27-13.91-3.28,4.61-.06,9.22-.12,13.83-.18Z"/>
  <path class="cls-6" d="m704.18,236.4c-.23-.43-.33-.89-.31-1.39,1.65.2,3.65-.97,4.7,1.52-1.46-.04-2.93-.09-4.39-.13Z"/>
  <path class="cls-5" d="m2.48,585.48c10.15.07,20.29.25,30.44.16,5.39-.05,9.93.95,11.08,7.97.72,4.39,3.42,5.62,6.96,5.61,4.35,0,8.7-.07,13.05.02,3.83.09,5.97-1.53,6.08-6.14.22-8.79,5.09-11.43,12.2-11.34,11.6.15,23.2-.14,34.79.11,5.34.11,9.29-.73,8.87-8.14-.07-1.21.38-3.4.95-3.56,12.53-3.55,15.55-24.47,31.71-21.4,6.39,1.21,12.62-1.35,18.94-1.97,2.51-.25,4.65-1.28,5.33-4.13,1.99-8.36,7.49-9.65,14.14-9.42,6.84.24,14.42,1.91,14.94-10.28.16-3.7,4.05-5.36,7.51-5.09,11.62.91,23.07-1.68,34.62-2.05,4.72-.15,9.01.73,13.27,3.49,7.32,4.75,12.48,1.95,13.01-7.75.47-8.54,4.18-11.59,10.97-13.41,6.75-1.81,13.53-3.2,20.32-4.7,4.04-.89,7.04,7.66,11.07.95,2.62,3.57.23,9.02,3.72,12.27.09,2.92-.69,5.97,1.07,8.62,1.09.95,3.07.16,3.56,2.27,0,1.42-.02,2.84-.02,4.25.01,4.19,1.29,7.9,3.42,11.29,2.44,1.55,4.24,3.82,5.68,6.45,4.82,6.1,5.76,13.8,7.86,21.24,6.6,23.34,14.26,46.31,21.52,69.43-4.87,5.42-10.01,10.58-14.56,16.31-5.67,7.15-11.2,12.81-20.91,13.15-10.34.37-22.06-1.41-28.79,12.18-1.71,3.45-7.26,5.54-11.34,6.33-11.9,2.31-24.06,5.42-34.46,11.09-9.32,5.09-18,7.04-27.77,7.16-1.54.02-3.84,1.08-4.48,2.43-6.8,14.28-18.69,13.11-30.35,12.81-3.76-.1-7.35.1-10.77,2.65-11.83,8.8-24.63,14.59-39.14,14.83-5.45.09-11.02-1.09-16.35,1.24-19.3,8.43-38.98,14.87-60.02,14.25-2.86-.08-5.9-.43-7.79,2.9-5.11,9-12.04,9.85-20.32,6-5.71-2.66-11.67-1-12.53,5.71-1.53,11.84-9.28,11.15-16.29,12.3-3.68.61-7.51.06-11.27.04.02-62.06.04-124.12.07-186.18Z"/>
  <path class="cls-3" d="m2.41,771.65c3.76.02,7.59.57,11.27-.04,7.02-1.15,14.76-.47,16.29-12.3.87-6.71,6.82-8.37,12.53-5.71,8.28,3.85,15.21,2.99,20.32-6,1.89-3.33,4.93-2.98,7.79-2.9,21.04.62,40.72-5.83,60.02-14.25,5.33-2.33,10.89-1.14,16.35-1.24,14.51-.25,27.31-6.03,39.14-14.83,3.43-2.55,7.01-2.75,10.77-2.65,11.67.3,23.55,1.47,30.35-12.81.64-1.35,2.94-2.41,4.48-2.43,9.76-.13,18.44-2.08,27.77-7.16,10.4-5.68,22.56-8.78,34.46-11.09,4.09-.79,9.63-2.89,11.34-6.33,6.73-13.58,18.44-11.8,28.79-12.18,9.7-.35,15.24-6.01,20.91-13.15,4.55-5.74,9.68-10.9,14.55-16.31,2.73,9.86,5.8,19.65,10.49,28.53,5.43,10.29,6.5,22.98,14.43,31.81-1.31,9.59,6.05,14.03,9.84,20.58-.31,3.48-1.88,7.63,3.44,8.16,4.65,12.86,9.3,25.73,13.95,38.59l.07.42c-.21.61-.15,1.19.19,1.72,1.86,3.57,4.11,6.98,3.69,11.46-2.3,1.89-3.52,4.48-3.95,7.58-3.55.84-7.1,1.69-10.66,2.53-5.66.74-11.24,1.7-15.55,6.47-10.86,6.19-22.72,9.22-34.11,13.73-10.66,4.23-22.1,6.15-31.99,12.78-5.11-2.02-9.76-2.78-14.52,1.89-4.63,4.54-11.31,4.43-16.95,6.58-20.71,7.88-37.35,25.88-59.61,29.47-6.67,1.07-10.41,7.27-16.19,10.23-13.47,6.9-26.87,10.24-41.7,10.11-55.96-.48-111.92-.38-167.87.03-8.57.06-10.79-2.99-10.62-12.14.55-29.7.36-59.42.46-89.13Z"/>
  <path class="cls-6" d="m329.41,814.62c9.88-6.63,21.32-8.55,31.99-12.78,11.39-4.51,23.25-7.54,34.11-13.72,5.84-.2,11.4-1.24,15.55-6.47,3.55-.84,7.1-1.69,10.65-2.53,5.26-1.76,10.51-3.52,15.77-5.27,2.88,3.78,4.07,9.59,9.7,10.37,1.68-6.49,1.38-12.68.23-18.88.83.01,1.66.03,2.5.04,2.19.43,4.42.72,6.57,1.33,2.57.73,5.44,6.44,7.41,1.79,2.08-4.92-3.46-6.06-6.5-7.8-1.15-.66-2.76-.32-4.16-.44-1.94-5.9-3.98-11.76-5.79-17.71-1.37-4.51-3.6-4.13-6.41-1.83-3.82.33-3.68,2.75-2.88,6.04,1.34,5.49,2.34,11.09,3.5,16.64.57,2.75,1.89,5.82-2.3,6.46-1.1-1.74-2.2-3.49-3.3-5.23-3.46-5.48-3.13-12.4-5.64-18.24-.06-.62.04-1.21.3-1.76,2.4-5.84,11.47-8.25,7.18-17.72-.52-1.15,2.04-3.09,3.75-3.25,3.16-.31,3.17,3.13,4.15,5.2,1.34,2.84-1.47,9.32,4.47,7.9,4.91-1.18,5.19-6.93,4.16-11.21-1.56-6.48-1.15-13.22-5.67-19.55-2.36-3.3-4.08-11.97-1.61-20.64,6.73,11.04,8.87,22.25,11.06,33.43-1.27,4.41,2.45,8.15,1.36,12.54.77,5.72,1.55,11.44,2.32,17.16,4.86,9.91,6.42,9.95,12.07.33.79-1.29,1.58-2.59,2.37-3.89,0,0,.75-.31.75-.31l.77.24c1.24-1.56,2.54-3.09,2.4-5.41l.54-.53c.5,1.45,1.01,2.9,1.51,4.35.17,1.02.33,2.03.5,3.05l-.15.25c-1.24,5.39.35,11.1,5.65,12.98,8.86,3.14,8.07,10.37,6.3,16.92-4.89,18.05-9.99,35.98-20.32,51.63-8.58,13-11.63,29.11-16.9,43.95-51.84.1-103.68.22-155.53.3-25.2.04-50.4,0-75.6-.05-2.72,0-5.45-.29-8.32-1.37,8.91-2.93,15.85-9.81,24.82-12.57,7.05-2.16,13.51-6.96,20.02-11.01,20.11-12.52,41.34-22.03,63.2-29.96,1.28-.46,2.3-1.8,3.45-2.73Z"/>
  <path class="cls-6" d="m464.53,872.24c2.74-13.28,3.82-27.1,10.33-39.14,2.6-4.82,4.53-9.52,10.15-12.24,1.99-.96,4.18-4.04,9.66-2.78-10.78-9.69-1.84-17.56-.4-25.34.47-2.53,3.85-6.43,4.41-10.35,1.84-12.98,11.84-18.36,19.24-27.17,2.75,4.32.66,7.19-.89,9.97-2.19,3.95-7.72,7.26-.6,12.18,1.82,1.26-.4,4.06-2.14,5.32-2.9,2.1-6.17,3.68-8.74,6.19-1.91,1.87-6.78,1.26-5.41,6.01,1.16,4.04,4.89,2.23,7.57,2.55,1.39.17,2.82.03,4.2.03.29,2.08.21,4.15-1.15,4.7-4.34,1.77-7.91,3.79-7.17,10.05.86,7.23-4.81,11.63-6.6,17.89-2.31,8.1-.23,9.27,6.04,7.3,1.39-.44,2.71-1.18,4.61.14-2.93,6.07-11.82,11.03-4.08,19.69-1.02,2.17.02,3.15,1.74,3.75,0,0,.75.14.76.14,1.98,1.77,3.96,3.55,5.94,5.32.03,1.95-1.21,2.16-2.51,2.29-4.59-5.51-10.56-7.27-17-7.8-.16-.22-.43-.43-.43-.66,0-.22.2-.57.4-.67,2.44-1.26,5.49,1.07,7.71-1.6-.53-8.3-3.81-5.49-7.21-2.22-5.84,1.21-9.62,5.22-12.1,11.02.27,2.07,1.81,2.04,3.14,2.37-.24,1.94-1.59,1.64-2.77,1.7-5.5,1.51-11.08,1.76-16.7,1.34Z"/>
  <path class="cls-6" d="m512.84,860.8c2.17-7.32-3.31-14.44-.48-21.78,4.85,4.61,9.2,10.54,16.79,7.78,2.91,8.2,5.6,16.46,4.64,25.53-4.54,1.58-8.39-1.55-12.6-2.3.12-5.66-3.18-7.59-7.44-8.45-.3-.25-.61-.52-.92-.79Z"/>
  <path class="cls-1" d="m500.16,858.03c-2.22,2.67-5.26.34-7.71,1.6-.19.1-.4.45-.4.67,0,.23.28.44.42.66-.05,3.54,3.22,4.8,4.22,7.62-.34,2.19-.1,4.88-3.46,3.99-3.94-1.04-8.3,1.55-12.02-1.67,1.18-.05,2.52.24,2.77-1.7,1-4.15-1.97-1.79-3.14-2.37,2.48-5.79,6.26-9.81,12.1-11.01,2.02,2.31,4.81,1.43,7.21,2.21Z"/>
  <path class="cls-8" d="m496.71,868.58c-1-2.82-4.27-4.08-4.22-7.62,6.44.53,12.42,2.3,17.01,7.8,1.05,1.22,2.11,2.44,3.16,3.66-5.93,1.86-10.71-2.18-15.95-3.84Z"/>
  <path class="cls-1" d="m513.75,861.57c4.27.87,7.56,2.8,7.45,8.46-1.92-.08-4.08,1.25-5.62-1.16,0,0,.04.02.04.02,3.19-3.65-1.17-4.91-1.88-7.32Z"/>
  <path class="cls-1" d="m512.65,872.42c-1.05-1.22-2.11-2.44-3.16-3.66,1.31-.12,2.54-.34,2.51-2.29,1.71-.13,3,.53,3.62,2.42,0,0-.04-.02-.04-.02-2.85-.74-1.4,2.92-2.92,3.54Z"/>
  <path class="cls-1" d="m496.68,529.85c1.06-.87,2.12-1.75,3.18-2.62,3.22,2.36,6.15,3.65,7.08-2.39,1.6-.18,3.21-.35,4.81-.52.86.01,1.71.02,2.57.03,5.85.64,9.35-7.32,16.27-4.68,4.74,1.81,10.26,1.77,15.6,1.42,6.33-.42,8.72,4.79,12.58,10.04,7.36,10.01,12.91,21.93,22.38,30.02,1.38,1.18,2.42,2.82,1.91,5.03-5.8,1.37-10.68-5.18-17.38-2.91,3.63,5.5,6.79,10.29,9.95,15.07-.6,1.56-1.19,3.13-1.78,4.71-9.11-3.42-18.36-6.71-25.96-13.48-4.09-3.64-8.78-4.93-12.85-2.97-4.52,2.17-6.07-1.09-8.64-3.05-4.33-3.74-8.33-1.04-12.37.79-7.67-1.27-15.34-2.54-23.01-3.82l-11.36-1.78c-3.04-6.44-.95-15.42-7.97-19.87.48-.76,1.35-2.21,1.37-2.19,9.2,6.7,20.41,5.19,30.24,9.46.87-4-.02-7.27-3.07-9.29-2.51-1.66-3.72-3.8-3.56-6.99Zm43.95,9.07c.85-.27,5.07,1.15,4.42-3.95-.74-5.81-5.27-7.04-9.71-7.55-3-.34-4.59,1.97-3.75,4.75,1.11,3.65,2.14,8.35,9.03,6.75Zm.28,11.45c8.06,4.39,14.22,7.58,21.45,6.85-6.7-1.52-11.05-10.54-21.45-6.85Z"/>
  <path class="cls-3" d="m533.43,649.53c-.22.93-.34,2.62-.68,2.67-10.34,1.68-14.68,11.77-21.09,18.82-2.73,3.01-3.07-.14-4.35-1.22-.7-.46-1.4-.92-2.11-1.38-7.61-3.69-10.23.4-10.41,8.29-4.24-7.02-3.08-16.07-7.05-23.19l.05.09c-.06-.68-.11-1.36-.17-2.03,3.29-9.44,2.03-19.02.7-28.61.06-1.52.11-3.04.17-4.55,1.8-12.87,3.59-25.73,5.4-38.6.28-.27.58-.5.91-.67,3.19,5.29,6.5,10.49,9.54,15.88,5.51,9.77,9.59,21.02,16.64,29.09,6.63,7.6,10.71,15.46,12.44,25.41Z"/>
  <path class="cls-3" d="m575.64,578.35c-3.16-4.79-6.33-9.58-9.96-15.07,6.7-2.27,11.58,4.28,17.38,2.91,2.2,1.97,4.41,3.94,6.61,5.91,1.44.65,2.89,1.3,4.33,1.95,0,0-.07-.05-.07-.05.48.76.97.86,1.47.04,6.74,3.33,9.28,8.76,9.13,17.25-.18,10.38,1.32,20.79,2.09,31.19-4.15,6.31-5.83,13.65-7.03,21.18-2.75,11.54-7.26,13.15-16.77,5.99.17-.46.39-.89.65-1.3-3.81-6.88-4.59-15.02-.11-20.62,6.54-8.18,1.3-6.93-3.38-7.23-2.53-1.92-.31-3.53,0-5.5.78-4.93,2.73-10.69-3.49-13.56,1.37-1.9,2.74-3.81,4.1-5.71,3.87-6.62,2.31-12.08-4.98-17.38Z"/>
  <path class="cls-6" d="m799.38,595.4h12.2c-3.02,6.86-4.77,14.29-13.09,16.06-1.48.32-4.42,6.26-.63,9.94,1.58,1.53,3.04,3.02,2.43,5.68-3.9,2.53-6.88,1.58-9.56-2.49-2.41-3.66-5.65-6.67-7.91-10.42-2.85-4.72-8.85-8.74-2.46-16.08,1.71-1.96-.18-7.77,1.44-11.59-1.54-7.14-7.22-10.69-14.5-8.98,1.75,6.11,8.58,4.54,11.21,9.26-6.68,4.36-11.57-3.85-17.73-3.14-3.82-.82-4.32-4.86-5.85-7.76-2.37-4.52-3.13-10.11-10.32-8.62-3.53.73-3.81-5.72-6.04-8.46-4.16-5.1-5.62-12.18-11.29-16.38-6.11-4.52-8.57-12.31-10.24-20.14.36-.41.73-.82,1.08-1.24,3.03.85,6.12,1.58,8.03,4.78,4.01,12.23,16.42,17.93,19.46,31.08.44,1.91,3.5,4.34,5.36,4.35,12.09.09,21.54,6.35,30.53,14.48,3.94,3.56,10.32,1.52,13.93,6.52-2.88,5.91,5.76,7.58,3.9,13.12-1.6-.69-3.24-1.28-4.78-2.11-2.11-1.13-4.02-5.74-6.33-2.54-2.54,3.51,1.79,5.41,3.67,7.27,2.03,2.01,4.56,4.58,7.61,2.67.64-.4-.04-3.42-.11-5.24Z"/>
  <path class="cls-6" d="m394.47,690.6c-7.93-8.83-9-21.52-14.43-31.81-4.69-8.88-7.76-18.67-10.49-28.53-7.25-23.11-14.92-46.08-21.52-69.43-2.1-7.45-3.04-15.15-7.86-21.24,12.2-3.96,17.02.37,17.24,15.51.1,7.01,5.62,12.91,12.16,13.09,2.59.07,5.18.28,7.77.43,1.73,1.22,2.67,2.88,2.38,5.24.48,5.51-.11,8.71-6.74,7.91-8.95-1.07-10.58,2.18-8.29,11.81,5.07,21.24,13.54,41.15,19.52,62.09,3.31,11.59,8.9,23.05,13.51,34.54-1.09.13-2.17.27-3.26.4Z"/>
  <path class="cls-6" d="m370.73,453.67c-2.34.39-4.49-.47-6.76-.97-6.38-1.42-12.76-2.77-13.03,8.57-.08,3.38-2.97,6.67-5.37,11.65-.99-8.85-5.92-11.47-13.17-12.73,8.3-6.24,12.97-15.22,22.91-15.7,4.96-.24,7.26-6.01,11.31-8.53,12.1-7.54,16.13-6.39,23.58,7.53-3.94,4-9.27,2.65-13.86,4.26-3.13,1.1-5.21,2.17-5.59,5.92Z"/>
  <path class="cls-1" d="m370.73,453.67c.38-3.75,2.46-4.83,5.59-5.92,4.59-1.61,9.92-.26,13.86-4.26,2.63,3.64,4.64,7.49,3.39,12.45-3.68-1.37-7.43-3.69-10.89.91,3.24,1.5,5.7,3.82,8.03,6.71,2.48,3.09,6.09,4.39,9.99,2.68,2.11,3.64,4.25,7.24,6.3,10.92.98,1.76,1.64,3.57-1.39,3.38-2.99-4.06-8.43-2.71-11.66-6.44-.32-.37-2.43.34-2.84,1.11-.43.83-.17,2.6.4,3.48,1.34,2.1,3.26,3.5,5.62,3.97.43,5.76-3.6,6.66-7.11,8.13-.9,0-1.8,0-2.71,0-.18-1.47-.36-2.94-.55-4.41,1.14-4.03-3.76-19.56-6.65-20.67-2.21-.84-2.93.29-2.97,2.89-.05,3.52-1.55,6.82-5.07,6.36-3.65-.48-1.98-4.66-2.71-7.19,1.85-4.17,1.76-10.38,8.53-10.38-2.39-1.24-4.78-2.48-7.17-3.72Z"/>
  <path class="cls-6" d="m391.18,525.56c-3.88-3.52-3.7-7.4-.81-11.51,1.93-1.12,3.57-3.25,6.12-2.13,1.54,1.45,3.09,2.88,4.63,4.34,1.24,1.18,1.95,3.61,4.12,2.65,2.26-1,2.4-3.25,2.29-5.67-.07-1.58.39-3.18.51-4.78.4-5.17,5.63-4.73,7.77-8.17.78-1.26,2.14,1.54,2.9,3.39,1.62,3.96,4.88,7.4.48,11.69-5.56,5.42-1.48,14.52-7.29,19.55-3.98-8.22-11.19-2.75-17.68-2.4-2.13-1.71,1.81-6.73-3.05-6.97Z"/>
  <path class="cls-6" d="m369.38,467.77c.73,2.53-.95,6.71,2.71,7.19,3.52.46,5.02-2.84,5.07-6.36.03-2.6.75-3.74,2.97-2.89,2.9,1.1,7.8,16.64,6.65,20.68-.7.15-1.4.29-2.1.43-.49,1.47-2.22,3.18.62,4.02l2.02-.04c.9,0,1.81,0,2.7,0-.06,1.92-.08,3.84-.18,5.76-.1,1.83.28,4.3-2.12,4.37-1.21.04-3.32-1.04-3.54-2.03-1.02-4.6-4.57-5.22-7.56-6.93-7.46-4.26-9.51-14.32-17.32-18.99-6.99-4.18-1.85-10.44,1.5-15.3l-.06.07c3.19,3.02,3.34,9.28,8.65,10.03Zm12.95,13.84c-.7-.73-1.2-1.48-1.87-1.85-.28-.16-1.24.37-1.34.76-.29,1.16.43,1.79,1.39,1.83.5.02,1-.39,1.81-.73Z"/>
  <path class="cls-6" d="m496.68,529.85c-.16,3.18,1.05,5.32,3.56,6.99,3.05,2.02,3.94,5.28,3.07,9.29-9.83-4.27-21.05-2.76-30.24-9.46-.02-.01-.89,1.43-1.37,2.19-2.84-.98-4.97-3.96-8.28-3.57,0,0,.03-.03.03-.03-3.23,4-4.83.61-5.9-2.02-1.11-2.73-3.37-5.99-1.6-8.76,1.27-1.99,4.05-1.26,6.14.52,4.24,3.61,10.23,2.43,14.44,6.42,1.49,1.41,3.11,2.26,4.75-.81,4.6-8.6,9.98-7.76,15.4-.76Z"/>
  <path class="cls-6" d="m627.52,508.09c8.09-4.19,14.69-9.85,23.64-8.81,2.9.34,1.87-8.5,7.68-5.9,1.55.69,5.66-1.32,5.28-.22-2.07,5.93,5.41,8.09,3.66,13.4-3.79-2.35-.32,11.03-6.73,3.88-.61-.67.36,4.57-2.69,4.67-2.81-7.36-14.58-10.1-19.6-4.56-1.82,2-4.99,1.42-11.22-2.46Z"/>
  <path class="cls-1" d="m391.18,525.56c4.86.24.91,5.27,3.05,6.97.62,1.57,1.25,3.15,1.88,4.73-.7,1.28-.65,2.51.27,3.65,2.45,13.78-6.44,29.6-16.65,32.95.29-2.36-.65-4.02-2.38-5.24-1.9-3.28-3.46-4.48.91-8.98,8.32-8.55,13.62-20.37,12.92-34.08Z"/>
  <path class="cls-6" d="m479.67,558.73c3.79.59,7.58,1.19,11.37,1.78,1.26,6.21,2.52,12.42,3.78,18.63-.33.17-.63.4-.91.67-3.57-1.4-6.38-1.55-5.63,4.2.29,2.21.87,4.42.84,6.63-.04,3.2-.28,7.34-3.99,7.18-3.63-.16-7.5-1.77-9.85-5.33-1.34-2.02,1.2-2.16,2.02-3.18,8.91-11.17,9.41-18.01,2.38-30.57Z"/>
  <path class="cls-6" d="m597.9,395.6c4.95-.42,8,.36,7.41,7.69-.34,4.26,4.7,7.79,4.35,12.98-4.78.71-3.71,4.6-3.51,8.01-3.76,3.26-.18,8.8-4.72,14.8,1.36-11.9-12.57-17.37-5.31-28.36,3.34-5.06,2.7-8.8,1.44-13.53-.11-.59,0-1.11.34-1.58Zm6.75,18.32c.31-1.45-.02-2.23-1-2.29-.43-.03-1.28.56-1.26.76.11.85.48,1.65.75,2.47.58-.36,1.15-.72,1.5-.93Z"/>
  <path class="cls-1" d="m430.71,744.61c-.26.55-.36,1.14-.3,1.77-7.53,6.6-.45,14.25-1.25,21.34-.43,2.11-.73,4.37-3.5,3.81.42-4.48-1.83-7.89-3.69-11.45.5-.19,1.01-.39,1.51-.58-.57-.38-1.14-.76-1.7-1.14,0,0-.07-.42-.07-.41,2.08-2.72,2.16-5.81,1.25-9.02-2.74-9.73-5.51-19.45-8.27-29.17.97-1.24,1.94-2.48,2.9-3.72,1.29,1.16,2.59,2.32,3.89,3.48,3.08,8.37,6.15,16.74,9.23,25.1Z"/>
  <path class="cls-6" d="m505.21,668.41c.7.46,1.4.92,2.11,1.38-.04,1.56-.29,3.16-.08,4.68,1.46,10.45-.43,12.69-10.61,12.32-4.65.47-5.97,3.8-5.82,8.39-.88-1.38-1.75-2.76-2.63-4.13-.26-.46-.51-.93-.73-1.41-.48-12.05-.88-24.1.31-36.14,3.96,7.12,2.81,16.17,7.05,23.19,3.97,6.8,6.47,3.78,8.31-1.69.73-2.18-.39-5.09,2.1-6.6Z"/>
  <path class="cls-6" d="m473.7,700.29c5.84-4.4,4.26-11.11,3.18-16.72-.98-5.1-1.07-10.04-1.72-17.36,7.69,7.11,6.59,17.61,12.28,23.44.23.48.47.95.73,1.4-.19,1.02-.37,2.04-.56,3.07-3.24,4.87-2.28,13.74-10.59,13.77-2.42-1.82-3.32-4.47-3.33-7.6Z"/>
  <path class="cls-6" d="m755.96,594.44c-3.94,1.8-6.8-1.46-9.44-3.33-9.17-6.49-19.57-11.13-27.81-20.91,4.42-3.37,8.48-1.97,12.27-2.25.99,6.91,3.76,10.46,10.57,12.83,5.39,1.87,13.45,4.22,14.4,13.67Z"/>
  <path class="cls-1" d="m354.01,320.11c-1.7-.12-3.59.25-5.07-.45-5.8-2.76-7.5-8.79-5.26-14.2,2.58-6.2,9-3.81,13.09-2.25,4.54,1.74,5.46,6.87,2.53,11.87-.61,1.04-1.17,2.12-1.75,3.18-1.18.61-2.36,1.23-3.53,1.84Z"/>
  <path class="cls-1" d="m303.17,360.92c1.75-1.7,1.72-4.03,1.83-6.32,2.76-.18,3.29-1.78,2.25-4.37.93,0,1.86,0,2.78,0,.83,1.98.33,5.63,4.25,2.88,4.29-3,8.85-5.99,14.18-5.93,2.41.03,6.38-.89,3.46,4.91-1.81,3.6,2.22,4.25,4.02,5.92,2.91,2.7,8.23,2.22,8.72,8.14-8.21-4.82-15.3-12.92-25.82-10.95-5.5.93-11.3.62-14.08,8.23-.66,1.82-2.7-.1-1.58-2.52Z"/>
  <path class="cls-6" d="m414.7,719.75c2.76,9.72,5.53,19.44,8.27,29.17.91,3.22.83,6.31-1.25,9.02-4.65-12.87-9.3-25.73-13.95-38.59,2.31.13,4.62.27,6.94.4Z"/>
  <path class="cls-6" d="m488.5,618.41c-.06,1.51-.11,3.03-.17,4.55-.16,3.22-.34,6.44-.48,9.65-.43,9.97-2.08,10.87-10.53,5.67,7.3-5.19,9.27-16.19,4.02-23.75-1.49-2.14-3.17-3.9-1.68-6.73.92-1.75,2.32-3.01,4.27-2.63,3.24.63,3.83,3.44,4.03,6.5.15,2.25.35,4.49.53,6.74Z"/>
  <path class="cls-1" d="m396.5,511.92c-2.55-1.12-4.19,1.01-6.12,2.13-1.33-2.74-2.26-5.78-5.87-6-2.38-.15-5.32.9-6.92-2.57,5.71-5.09,19.9,6.54,18.94-11.7,6.25,3.81,6.84,5.57,3.42,11.71-1.18,2.12-3.2,3.68-3.45,6.43Z"/>
  <path class="cls-1" d="m476.34,744.9c-.79,1.29-1.58,2.59-2.37,3.88-1.07-.65-2.14-1.3-3.21-1.95-3.57-5.32-4.01-13.43-11.18-15.53,1.08-4.39-2.64-8.13-1.36-12.54,7.02,6.21,14.09,12.36,17.51,22.11,0,0-.17-.21-.17-.21.27,1.41.53,2.82.8,4.24Z"/>
  <path class="cls-6" d="m658.43,618.6c-4.22.19-8.44.37-12.67.56-.45-.39-.86-.84-1.34-1.17-3.21-2.25-7.34-5.08-4.04-9.45,2.58-3.41,7.85-3.14,10.92-.06,2.76,2.77,6.84,4.99,7.13,10.13Z"/>
  <path class="cls-1" d="m331.09,517.6c-.49-2.11-2.48-1.31-3.56-2.26-.91-2.79,3.15-6.35-1.08-8.62-3.49-3.24-1.1-8.7-3.72-12.27-.21-2.56-.41-5.13-.62-7.69.17-.65.33-1.3.5-1.95,1.58.09,4.54-.92,4.38,1.06-.8,9.94,5.17,17.83,6,27.16.16,1.76.42,3.93-1.9,4.57Z"/>
  <path class="cls-6" d="m362.48,300.69c10.34,1.32,20.68,2.63,31.02,3.94.66.08,1.32.17,1.98.25v7.72c-6.72-6.26-14.36-5.5-21.53-6.74-4.18-.72-9.46,1.5-11.41-5.25l-.06.07Z"/>
  <path class="cls-6" d="m339.38,419.98c8.63-2.42,16.72-8.55,26.25-4.73-7.68,2.29-15.37,4.55-23.05,6.87-1.83.55-2.62-.53-3.2-2.14Z"/>
  <path class="cls-1" d="m677.62,451.99c.61,2.37,1.21,4.74,1.83,7.11-7.31.34-14.74,1.54-22.12-3.63,6.9-3.77,13.57-3.79,20.3-3.48Z"/>
  <path class="cls-6" d="m506.94,524.85c-.94,6.04-3.87,4.75-7.08,2.39-2.28-2.73-4.57-5.46-7.1-8.48,4.33-3.08,9.23-.73,13.58-1.37,5.21-.77-.29,4.82.61,7.47Z"/>
  <path class="cls-6" d="m400.71,466.23c-3.89,1.72-7.5.41-9.99-2.68-2.33-2.9-4.79-5.21-8.03-6.71,3.46-4.6,7.2-2.28,10.89-.91,4.38,1.71,5.95,5.84,7.14,10.3Z"/>
  <path class="cls-6" d="m623.2,440.3c.92,12.42.5,14.36-4.48,20.8-3.29-8.12-1.45-17.71,4.41-22.96.02.72.05,1.44.07,2.16Z"/>
  <path class="cls-1" d="m394.47,690.59c1.08-.13,2.17-.27,3.26-.4.25,1.19.5,2.38.75,3.57-.61,1.09-.24,1.92.58,2.62.91,5.31,9.13,7.39,5.26,14.8-3.8-6.56-11.16-11-9.84-20.58Z"/>
  <path class="cls-6" d="m341.28,473.65c-3.83,2.53-7.24,4.78-10.64,7.04-1.35.9-2.66,1.18-3.69-.49-.91-1.48-.99-3.17.4-4.2,4.03-2.99,7.15-10.96,13.92-2.35Z"/>
  <path class="cls-1" d="m606.15,424.28c-.2-3.42-1.27-7.31,3.51-8.01,2.5,4.98,7.63,7.55,9.49,13.25.75,2.28,1.75,4.09-.36,5.81-3.36,2.73-2.99-1.82-3.73-2.92-2.42-3.59-5.04-6.62-8.91-8.12Z"/>
  <path class="cls-6" d="m650.1,482.28c-4.34-2.87-5.17-7.88-7.34-11.79-1.4-2.53.52-3.48,2.18-4.02,1.53-.5,4.83-.86,4.04,1.11-2.11,5.26,3.57,9.31,1.12,14.7Z"/>
  <path class="cls-6" d="m674.06,533.87c4.92.98,6.79,5.41,9.84,8.92q-8.03,1.25-9.84-8.92Z"/>
  <path class="cls-1" d="m473.7,700.29c.02,3.13.91,5.78,3.33,7.6.05,3.75-.78,7.68-4.7,7.15-3.39-.46-.94-4.02-1.11-6.27-.16-2.16-.96-4.31-1.7-6.37-.53-1.48-1.56-3.22.42-3.78,1.06-.3,2.49,1.06,3.75,1.67Z"/>
  <path class="cls-6" d="m632.04,438.13c.26,1.72.16,3.61,1.79,4.67.77,4.44-2.31,5.8-5.2,7.93-.33-3.27-1.12-6.09-3.23-8.17,4.03-.48,1.92-3.25,1.6-5.35,1.95-1.53,3.76-2.16,5.03.92Z"/>
  <path class="cls-6" d="m397.14,482.66c-2.36-.47-4.28-1.88-5.62-3.97-.56-.88-.83-2.65-.4-3.48.4-.77,2.51-1.49,2.84-1.11,3.23,3.73,8.67,2.37,11.66,6.44-2.83.71-5.66,1.42-8.48,2.13Z"/>
  <path class="cls-6" d="m433.21,329.92c1.56.5,3.5-.36,4.63,1.64-3.12,1.22-1.48,5.66-2.75,6.54-2.08,1.43-5.09.8-5.09-3.58,0-1.52-.43-3.04-.67-4.57,1.29-.01,2.58-.02,3.88-.03Z"/>
  <path class="cls-6" d="m351.43,488.4c-2.28-.86-5.59-.9-5.61-4.52-.03-3.86,3.33-3.74,5.74-4.03,4.43-.54,2.01,4.07,3.08,6.05,1.32,2.43-1.46,2.44-3.21,2.5Z"/>
  <path class="cls-6" d="m354.01,320.11c1.18-.61,2.36-1.23,3.53-1.84.96-.18,1.93-.37,2.89-.55.29.34.59.67.89,1-4.84,5.3-9.82,10.02-18.43,6.16,3.91-4.26,8.55-1.23,11.13-4.76Z"/>
  <path class="cls-1" d="m639.3,461.81c-.62,4.28-3.95,8.13.05,12.34,1.74,1.83,1.18,3.18-.38,4.52-1.1.94-2.08,2.38-3.71,1.73-2.24-.9-1.77-3.32-1.38-4.85,1.2-4.81-.23-10.98,5.42-13.73Z"/>
  <path class="cls-1" d="m641.84,484.3c4.34,1.43,4.41,4.58,4.76,7.74.26,2.31.81,4.51-2.26,4.52-3.52.02-6.33-2.06-6.75-5.68-.38-3.26,4.59-2.81,4.25-6.58Z"/>
  <path class="cls-6" d="m694.64,560.58c-.77.58-1.55,1.17-2.32,1.75-3.87-3.58-8.5-6.7-6.87-14.12,3.64,1.95,3.58,7.95,8.13,8.05,0,0-.22.18-.22.18-.54,1.75.11,3.04,1.28,4.14Z"/>
  <path class="cls-6" d="m572.95,410.64c.26,3.01-1.63,4.08-3.68,4.32-2.29.27-2.72-1.92-2.76-3.88-.07-3.01,1.23-5.08,4.08-4.83,2.22.19,2.33,2.42,2.36,4.39Z"/>
  <path class="cls-6" d="m486.84,714.65c3.13,5.98.91,9.98-3.9,13.01-6.07-7.08-.6-9.86,3.9-13.01Z"/>
  <path class="cls-6" d="m692.75,587.79c3.28,4.68,5,9.59,1.87,15.24-1.68-2.82-1.37-6.51-3.59-9.21-2.18-2.65-1.73-5.04,1.72-6.03Z"/>
  <path class="cls-6" d="m466.99,544.88c3.82,1.9,7.1,4.32,6.26,9.8-.21,1.35-1.61,2.02-2.7,1.31-3.86-2.5-3.1-7.05-3.67-11,0,0,.12-.11.12-.11Z"/>
  <path class="cls-6" d="m463.01,672.4c-.36,2.38-2.41,2.37-4.44,2.2-1.89-.16-3.56-1.16-2.94-3.51.72-2.73,3.24-1.95,5.08-2.2,1.74-.24,2.58.87,2.3,3.52Z"/>
  <path class="cls-1" d="m597.9,395.6c-.33.47-.45,1-.34,1.58-5.14-3.39-9.26-7.34-6.53-14.98,3.04,1.56,2.44,6.78,6.18,7.64.23,1.92.46,3.84.68,5.77Z"/>
  <path class="cls-6" d="m637.07,536.83c.73-3.84.58-8.13,4.82-11.17,1.74,5.84,1.84,10.07-4.27,11.69l-.54-.52Z"/>
  <path class="cls-6" d="m597.22,389.84c-3.74-.85-3.14-6.08-6.18-7.64-2.05-5.45,1.87-2.53,3.37-2.99,1.89-.57,3.4-.3,3.32,2.39-.08,2.75-.33,5.49-.51,8.23Z"/>
  <path class="cls-1" d="m480.26,739.41c.14,2.32-1.16,3.85-2.4,5.41-.77-1.39-1.54-2.77-2.31-4.16,0,0,.17.21.17.21-.42-3.25-1.21-6.57,1.18-9.38,1.12,2.64,2.25,5.28,3.37,7.92Z"/>
  <path class="cls-6" d="m421.49,719.51c-1.3-1.16-2.59-2.32-3.89-3.48-.85-2.29-1.69-4.57.07-7.39,4.26,2.41,4.17,6.58,3.82,10.87Z"/>
  <path class="cls-1" d="m334.49,533.14c-2.14-3.39-3.41-7.1-3.42-11.29,7.13,1.51,2.19,7.56,3.42,11.29Z"/>
  <path class="cls-6" d="m480.26,739.41c-1.12-2.64-2.24-5.28-3.37-7.92,1.9-.69,3.8-1.38,5.7-2.06.16.37.23.76.21,1.17-4.08,1.73-2.2,5.26-2,8.28l-.54.53Z"/>
  <path class="cls-6" d="m654.47,457.32c-3.33-.73-5.64-1.17-7.41-4.64,3.41-.32,5.18,1.37,7.41,4.64Z"/>
  <path class="cls-1" d="m554.45,235.96c.81-.61,1.63-1.22,2.45-1.82,1.28.76,2.55,1.52,3.81,2.28.32.53.55,1.11.7,1.73-2.21.16-4.43.57-6.62.41-2.74-.2-1.54-1.5-.35-2.59Z"/>
  <path class="cls-1" d="m433.21,329.92c-1.29,0-2.59.02-3.88.03-.87-1.66-1.85-3.64.84-4.05,2.41-.38,3.67,1.13,3.04,4.02Z"/>
  <path class="cls-1" d="m487.62,694.12c.19-1.02.37-2.05.56-3.07.88,1.38,1.75,2.75,2.63,4.13-1.98,3.05-2.32.02-3.19-1.07Z"/>
  <path class="cls-1" d="m432.19,312.45c.13.58.18,1.16.14,1.75h-8.96c3.77-2.57,6.35-1.61,8.81-1.75Z"/>
  <path class="cls-1" d="m627.01,437.21c.31,2.1,2.43,4.87-1.6,5.35-.73-.75-1.46-1.5-2.2-2.26-.02-.72-.05-1.44-.07-2.17,1.29-.31,2.58-.62,3.87-.93Z"/>
  <path class="cls-6" d="m637.61,537.35c-.46,1.16.33,3.59-1.2,3.28-.94-.19-.6-2.67.66-3.8,0,0,.54.52.54.52Z"/>
  <path class="cls-6" d="m396.38,540.91c-.92-1.14-.97-2.36-.27-3.65,3.14.94,1.84,2.28.27,3.65Z"/>
  <path class="cls-1" d="m656.28,536.39c.38-.36.69-.89,1.08-.96.48-.09,1.29,0,1.48.35.76,1.38-.53,1.26-1.07,1.33-.45.06-.96-.44-1.49-.72Z"/>
  <path class="cls-1" d="m395.48,304.88c-.66-.08-1.32-.17-1.98-.25.01-2.86,1.78-2.45,3.39-2.2.83.13,1.57.8.86,1.67-.46.56-1.49.54-2.26.78Z"/>
  <path class="cls-8" d="m645.43,446.72c1.72-.65,3.28-.64,4.38,1.3-1.46-.43-2.92-.86-4.38-1.3Z"/>
  <path class="cls-6" d="m662.49,618.48c-1.36,1.05-2.72,1.88-4.14.1,1.38-.03,2.76-.07,4.14-.1Z"/>
  <path class="cls-6" d="m514.32,524.35c-.86,0-1.71-.01-2.57-.03.44-.64.87-1.28,1.31-1.92l1.26,1.95Z"/>
  <path class="cls-6" d="m465.44,540.74c1.38.98,1.77,2.42,1.54,4.15,0,0-.12.11-.11.11-1.64-.43-2.06-1.81-2.13-3.45.24-.27.47-.53.7-.8Z"/>
  <polygon class="cls-6" points="632.38 455.15 631.73 454.73 632.43 454.45 632.38 455.15"/>
  <path class="cls-4" d="m528.58,246.97c-.12-.22-.24-.43-.36-.65.26-.16.52-.33.78-.49.03.26.14.54.07.76-.05.17-.32.26-.5.38Z"/>
  <path class="cls-6" d="m594.01,574.05c-1.44-.65-2.89-1.3-4.33-1.95,1.69-.02,3.21.42,4.33,1.95Z"/>
  <path class="cls-6" d="m399.41,310.62c.52,0,1,.12,1.46.38-.24.46-.48.91-.72,1.37-.25-.58-.49-1.16-.74-1.75Z"/>
  <path class="cls-6" d="m487.63,651.57c.06.68.11,1.36.17,2.03-1.47-.53-.97-1.27-.17-2.03Z"/>
  <path class="cls-6" d="m360.43,317.72c.37-.33.96-1.02,1.08-.92.93.7.42,1.34-.2,1.92-.3-.33-.59-.66-.88-.99Z"/>
  <path class="cls-6" d="m595.42,574.04c-.51.83-1,.72-1.47-.04.49.13.98.15,1.47.04Z"/>
  <polygon class="cls-6" points="360.79 457.68 360.5 457.46 360.73 457.74 360.79 457.68"/>
  <polygon class="cls-6" points="713.23 518.53 713.42 519.09 712.9 519 713.23 518.53"/>
  <path class="cls-6" d="m717.03,522.26c-.32-.46-1-1.19-.9-1.35.63-1.09,1.35-.63,1.98.11-.36.41-.72.83-1.08,1.24Z"/>
  <path class="cls-6" d="m464.74,541.54c-.69-.53-1.31-1.1-.32-1.91.06-.05.67.72,1.02,1.11-.23.27-.47.54-.7.8Z"/>
  <polygon class="cls-6" points="473.02 334 473.19 334.57 472.75 334.53 473.02 334"/>
  <path class="cls-6" d="m399.06,696.38c-.82-.7-1.18-1.52-.58-2.62.19.87.38,1.74.58,2.62Z"/>
  <path class="cls-6" d="m362.54,300.61s-.07.07-.07.07c0,0,.07-.07.07-.07Z"/>
  <path class="cls-6" d="m759.59,334.02c-4.25,1.73-6.78,5.84-10.03,8.94-4.3-3.04-7.61-6.15-13.91-2.16-4.79,3.03-12.24,3.81-18.35-1.31,3.34-4.05,7.56-4.12,12.13-2.95-3.44-11.7-3.44-11.57,7.2-11.25,8.52.25,16.08,3.29,22.96,8.74Z"/>
  <path class="cls-6" d="m644.67,254.01c-3.07-.61-6.12-1.43-9.22-1.77-3.29-.37-5.54-2.04-5.99-5.64-.56-4.55,3.15-3.59,5.31-4.42,3.45-1.32,6.47-.58,7.43,3.73.62,2.78.58,5.69,2.46,8.1Z"/>
  <path class="cls-6" d="m606.16,300.63c-9.66-.17-19.14-1.62-28.28-5.43,10.07-2.67,19.19,1.25,28.26,5.45l.02-.03Z"/>
  <path class="cls-6" d="m606.14,300.65c.28-.02.62-.18.83-.05,2.83,1.61,4.47-4,7.31-1.5.4.36.42,2.22.03,2.58-2.95,2.66-5.54.5-8.15-1.05,0,0-.02.03-.02.03Z"/>
  <path class="cls-6" d="m795.38,339.33c-3.42-.05-6.84-.1-10.27-.15,3.49-5.96,6.87-1.66,10.27.15Z"/>
  <path class="cls-2" d="m454.85,325.96c.03-.51.07-1.03.1-1.54.34.19.68.39,1.02.58-.43.27-.87.53-1.3.8,0,0,.18.16.18.16Z"/>
  <path class="cls-2" d="m560.71,236.41c-1.27-.76-2.54-1.52-3.81-2.28.07-.37.02-.71-.14-1.04,2.39-.49,5.41-1.91,3.96,3.32Z"/>
  <path class="cls-1" d="m689.45,404.77c-5.39-.32-10.78-.72-16.18-.9-1.21-.04-2.41.24-2.46-1.48-.04-1.18.11-2.96.8-3.49,4.69-3.62,10.07-.55,15.11-1.6,3.92-.81,2.79,3.86,4.16,5.88-.47.53-.95,1.06-1.42,1.59Z"/>
  <path class="cls-2" d="m663.4,428.55c.23,5.63,4.15,6.07,9.37,6.37-6.87,5.82-12.92,3.5-18.64,2.13-1.66-.4-1.25-3.06.37-4.48,2.06-1.81,5.93-1.3,5.95-5.73.99.57,1.97,1.14,2.96,1.71Z"/>
  <path class="cls-1" d="m607.93,345.21c-6.2.29-7.15-7.11-11.47-9.82,6.41-2.5,10.03,3.12,14.07,6.5,1.52,1.28-.88,2.99-2.65,3.39-.16-.12-.32-.24-.48-.36.18.1.36.19.54.29Z"/>
  <path class="cls-2" d="m546.69,324.47c3.36-2.3,6.75-4.27,11.49-4.12-2.73,6.9-6.99,6.11-11.49,4.12Z"/>
  <path class="cls-1" d="m581.81,338.68c1.56-1.63,3.19-2.82,5.29-2.43.27.05.71,1.97.44,2.23-1.73,1.67-3.67,1.42-5.74.2Z"/>
  <path class="cls-1" d="m581.01,331.4c.7.9,1.63,1.59,1.58,2.18-.05.62-1.03,1.59-1.61,1.59-.57,0-1.54-1-1.58-1.61-.04-.59.9-1.26,1.61-2.15Z"/>
  <path class="cls-1" d="m643.78,373.71l-.32.63c-.04-.31-.15-.65-.09-.93.05-.25.3-.44.46-.66-.02.32-.04.64-.05.96Z"/>
  <path class="cls-2" d="m848.34,600.99c.34,2.13,1.99,1.93,3.32,2.37,1.07.36,2.09.9,3.66,1.6-4.54,4.71-8.85,4.03-13.24,1.15-1.33-.88-3.89-1.45-2.84-3.76.51-1.12,3.03-1.11,4.62-1.6,1.48.08,2.98.16,4.47.24Z"/>
  <path class="cls-6" d="m808.17,578.9c5.57-.73,9.71,2.32,14.94,4.28-6.7,1.79-7.8,1.45-14.94-4.28Z"/>
  <path class="cls-2" d="m816.45,589.89l.06-.35s-.09.5-.09.51c0,.01.03-.17.03-.17Z"/>
  <path class="cls-2" d="m494.82,579.14c-1.26-6.21-2.52-12.42-3.78-18.63,7.67,1.27,15.34,2.55,23,3.82,4.28,2.69,8.52,4.68,12.37-.79,2.57,1.96,4.13,5.22,8.64,3.05,4.07-1.96,8.76-.67,12.85,2.97,7.6,6.77,16.85,10.06,25.95,13.46,3.26,3.55,2.2,10,6.78,12.7-1.37,1.9-2.74,3.81-4.1,5.71-2.33,2.88,3.59,12.3-6.01,9.41-.22,1.19-.45,2.39-.67,3.58-5.25,3.05-6.74,8.99-8.92,14.39-8.32,1.43-7.5,8.75-7.91,15.27-1.68,4.04-5.43,6-6.92,10.9-1.57,5.15-3.59-4-6.59-1.91-.15-3.1-2.26-2.68-4.08-2.81-.67-.25-1.33-.49-1.99-.74-1.72-9.95-5.8-17.81-12.43-25.41-7.04-8.07-11.13-19.32-16.64-29.09-3.04-5.39-6.35-10.6-9.54-15.88Z"/>
  <path class="cls-6" d="m586.08,717.5c.39,1.99.79,3.99,1.18,5.98-5.52,6.17-10.18-.58-13.44-2.77-11.23-7.55-22.17-14.21-35.94-12.07-2.58.4-5.02-1.61-4.76-5.46.07-.96-.03-1.93-.04-2.9q-.11-20.74-19.29-18.32c-.71.09-1.48-.49-2.98-1.04,5.06-6,11.61-4.03,17.07-5.74,5.99-1.89,12.56,1.45,18.51-2.89,2.08-1.52,3.79,1.21,3.03,3.86-2.45,8.59,2.85,11.12,8.33,12.43,3.83.92,6.79,1.67,6.87,6.66.02,1.25-.58,2.42,1.1,2.86,9.15,2.41,14.88,8.61,17.09,18.9.09.44,2.14.35,3.27.51Z"/>
  <path class="cls-6" d="m622.39,706.06c3.58,2.58,5.75,6.21,6.49,10.9-1.27,9.52,6.37,14.26,9.34,21.51,2.01,4.91,4.52,9.57,6.58,14.45.38.9.11,2.83-.52,3.42-1.5,1.41-3.03-.16-3.38-1.44-3.39-12.44-13.13-19.67-19.43-29.7-3.01-4.79-6.89-9.18-12.28-9.26-4.8-.07-4.57-6.56-8.67-6.72,0-.62.09-1.22.29-1.8,2.81-1.58,2.15-3.28.14-5.03-.15-.57-.2-1.15-.13-1.74,3.55-2.36,12.74,11.96,11.31-5.02,4.54,2.34,6.82,7.09,10.25,10.42Z"/>
  <path class="cls-6" d="m589.52,692.08c-.93,1.23-2.43,2.16-1.75,4.22-2.86.5-5.59,1.09-8.09-1.6-5.33-5.71-12.03-8.44-19.14-10.02-2.06-.46-5.06-1.85-3.35-3.67,4.22-4.49,9.05-8.96,14.38-11.23,4.91-2.09,5.97,3.83,7.68,8.01,2.29,5.59,10.52,6.17,10.26,14.28Z"/>
  <path class="cls-6" d="m533.66,824.02c-1.42,3.99,2.08,6.35,2.58,9.72.34,2.31.36,4.6-1.43,6.13-2.07,1.77-4.38,1.5-6.28-.33-4.55-4.36-9.13-8.96-11.79-14.92-2.06-4.61-2.42-10.54,2.94-13.12,3.93-1.89,7.99-.98,8.63,5.29-4.97,3.37-2.69,5.43,1.11,6.91,1.29.5,2.82.23,4.24.32Z"/>
  <path class="cls-6" d="m581.4,749.02c-9.52-9.9-22.92-10.8-33.59-18.03-.22-.15-.34-.47-.51-.71,12.88-4.89,26.23-.76,34.89,10.76,1.86,2.47.81,4.78-.13,7.14-.21.28-.43.56-.66.83Z"/>
  <path class="cls-6" d="m569.84,614.43c.22-1.19.45-2.39.67-3.58,9.6,2.88,3.69-6.53,6.01-9.41,6.21,2.87,4.26,8.63,3.48,13.56-.31,1.97-2.53,3.59,0,5.5-3.08,7.52-.16,17.28-7.03,23.39l-.55.46c-1.93-.15-4.36.59-2.41-3.43,4.24-8.76-.56-17.64-.17-26.49Z"/>
  <path class="cls-6" d="m573.63,762.89c-9.41-2.12-16.59-8.84-25-12.68-2.07-.94-.38-1.98-.69-2.89-.7-2.08.37-1.96,1.63-1.73,10.24,1.93,18.52,7.3,24.05,17.29Z"/>
  <path class="cls-6" d="m581.65,803.1c.67,6.66-3.79,7-6.22,6.9-3.92-.16-8.25-2.13-9.05-7.3-.96-6.26,4.5-6.64,7.53-6.93,4.45-.42,6.66,3.98,7.73,7.33Z"/>
  <path class="cls-6" d="m543.43,804.82c2.81,2.26,6.2,1.67,9.33,2.34-.8,4.19-5.74,7.85-1.28,12.7-7.63.9-12.21-1.59-10.2-11.39.72-1.22,1.44-2.43,2.16-3.65Z"/>
  <path class="cls-6" d="m613.09,746.66c-4.01-1.63-7.92-3.79-12.06-4.67-2.29-.49-3.78-.17-2.56-3.27.8-2.03.77-5.45,4.35-3.39,4.5,2.59,9.42,4.58,10.37,11.21l-.1.12Z"/>
  <path class="cls-6" d="m639.45,820.64c-3.91,3.79,4.89,9.66-1.72,13.01-5.28-3.02-5.76-9.75-5.65-14.25.08-3.51,4.8.1,7.36,1.23Z"/>
  <path class="cls-6" d="m629.94,776.58c11.61,4.29,3.54,16.95,10.49,22.68l-2.41,1.17c-2.62-7.74-5.25-15.48-8.08-23.84Z"/>
  <path class="cls-2" d="m529.16,846.8c-7.59,2.76-11.95-3.16-16.79-7.78,8.37-4.85,11.78,3.61,16.79,7.78Z"/>
  <path class="cls-6" d="m553.01,644.09c.4-6.53-.42-13.84,7.91-15.27.34,7.01-2.28,12.11-7.91,15.27Z"/>
  <path class="cls-6" d="m530.19,699.88q-7.46,5.02-13.22,1.6c4.7,1.7,6.76-12.36,13.22-1.6Z"/>
  <path class="cls-2" d="m543.43,804.82c-.72,1.22-1.44,2.43-2.16,3.65-7.06-4.12-13.82-9.28-22.72-7.35,1.17-3.59,3.75-2.2,5.5-3,2.43.42,4.86.84,7.29,1.26,1.71,2.16,4.16.92,6.18,1.65,1.99,1.29,3.98,2.57,5.97,3.86l-.05-.07Z"/>
  <path class="cls-2" d="m551.47,819.85c-4.46-4.84.49-8.51,1.28-12.7,0,0,.56-.04.56-.04,1.93,3.51,3.71,7.16,6.88,9.56-2.28,3.2-5.17,4.35-8.73,3.18Z"/>
  <path class="cls-6" d="m576.72,663.2c-.03-.63.08-1.32-.1-1.89-1.44-4.43,2.25-5.14,4.19-6.93.86-.8,2.17-.06,2.91,1.11,2.15,3.41-2.69,4.48-2.01,7.4-1.47,3.98-3.32.25-4.99.32Z"/>
  <path class="cls-2" d="m533.66,824.02c-1.42-.08-2.95.18-4.24-.32-3.8-1.48-6.08-3.54-1.11-6.91,4.7-.27,5.69,2.87,5.35,7.22Z"/>
  <path class="cls-6" d="m516.62,736.05c.92-7.33,5.61-7.55,10.72-6.97-3.57,2.32-7.15,4.64-10.72,6.97Z"/>
  <path class="cls-3" d="m480.8,738.88c-.19-3.02-2.07-6.54,2-8.28,6.06,4.51,3.05,8.58-.49,12.63-.51-1.45-1.01-2.9-1.51-4.35Z"/>
  <path class="cls-6" d="m560.2,816.68c-3.17-2.4-4.95-6.05-6.88-9.56,6.96-.99,9.49,1.99,6.88,9.56Z"/>
  <path class="cls-8" d="m515.62,868.89c-.62-1.89-1.9-2.55-3.62-2.42-1.98-1.77-3.96-3.55-5.94-5.32,2.09-4.02,4.51-.33,6.78-.35.31.27.62.53.92.79.7,2.4,5.06,3.66,1.87,7.31Z"/>
  <path class="cls-6" d="m586.77,663.36c1.92.12,3.32,1.07,4.03,3.12-1.66,2.82-4.36,4.13-6.42,1.8-2.15-2.43,2.17-2.83,2.38-4.92Z"/>
  <path class="cls-6" d="m583.5,648.35c-.26.4-.48.84-.65,1.3-3.34.11-6.44-.94-9.41-2.51-.33-.93-.67-1.86-1.01-2.79,0,0,.55-.46.55-.46,3.51,1.49,7.01,2.97,10.52,4.46Z"/>
  <path class="cls-6" d="m535.42,650.27c1.81.12,3.92-.29,4.08,2.81-2.33.81-4.96,2.17-4.08-2.81Z"/>
  <path class="cls-6" d="m582.06,748.19c3,.73,4.88,2.57,4.96,6.2l-.1.09c-2.81-.6-3.61-3.73-5.52-5.46.22-.27.44-.54.66-.83Z"/>
  <path class="cls-6" d="m613.19,746.54c1.21.52,2.43,1.01,3.6,1.62.08.04-.14,1.43-.38,1.49-2.2.6-2.68-1.33-3.32-2.99,0,0,.1-.12.1-.12Z"/>
  <path class="cls-2" d="m588.64,669.14c.81,2.23,1.33,3.05,1.35,3.89.02.73-.53,1.48-.83,2.22-.61-.52-1.49-.92-1.74-1.6-.2-.56.35-1.46,1.22-4.51Z"/>
  <path class="cls-6" d="m543.48,804.88c-1.99-1.28-3.98-2.57-5.97-3.86,2.91-.49,5.5-.36,5.97,3.86Z"/>
  <path class="cls-6" d="m540.79,660.57c-.79.41-1.5,1.02-1.74.85-.67-.48-1.14-1.3-1.69-1.99.45-.17,1-.6,1.33-.45.71.33,1.31.97,2.1,1.59Z"/>
  <path class="cls-4" d="m651.2,727.04c.22,1.21.41,2.48-.94,2.99-.27.1-1.1-.55-1.14-.93-.2-1.87,1.37-1.42,2.23-1.91,0,0-.15-.14-.15-.14Z"/>
  <path class="cls-6" d="m531.33,799.38c-2.43-.42-4.86-.84-7.29-1.26,2.65-1.14,5.18-1.49,7.29,1.26Z"/>
  <path class="cls-5" d="m505.31,861.01c-1.71-.6-2.76-1.58-1.74-3.75,1.63.65,1.21,2.47,1.74,3.75Z"/>
  <path class="cls-6" d="m482.81,746.28c.78.31,1.56.61,2.34.92-.16.26-.45.76-.47.74-.69-.44-1.35-.92-2.02-1.41,0,0,.16-.25.16-.25Z"/>
  <path class="cls-6" d="m587.02,754.39c.33.48.67.96,1,1.44-1.42.62-.67-.96-1.1-1.35,0,0,.1-.09.1-.09Z"/>
  <path class="cls-6" d="m618.36,756.26c.52.17,1.03.33,1.55.5l-1.6-.44s.06-.06.06-.06Z"/>
  <polygon class="cls-6" points="618.3 756.32 618 755.81 618.36 756.26 618.3 756.32"/>
  <path class="cls-6" d="m801.07,649.47c.66-4.7-1.51-7.43-5.14-9.15,1.59-1.03,3.01-2.52,5.06-2.19,4.12.11,7.32,1.82,8.93,6.32,1.23.83,2.6,1.49,3.66,2.53,1.58,1.55,5.43,2.22,3.99,5.14-1.52,3.08-4.38,1.34-6.51-.62-2.97-2.73-6.79-.61-10-2.05Z"/>
  <path class="cls-2" d="m778.5,586.76c-2.62-4.71-9.46-3.15-11.21-9.26,7.27-1.7,12.96,1.84,14.5,8.98-1.1.09-2.19.18-3.29.27Z"/>
  <path class="cls-6" d="m764.51,627.35c-6.84,4.22-8.61-2.72-11.75-6.63,5.72-1.76,8.64,2.65,11.75,6.63Z"/>
  <path class="cls-2" d="m694.64,560.58c-1.17-1.09-1.82-2.39-1.28-4.14,2.82.46,1.22,2.62,1.28,4.14Z"/>
  <path class="cls-1" d="m801.07,649.47c3.21,1.44,7.03-.69,10,2.05,2.13,1.96,4.99,3.7,6.51.62,1.44-2.93-2.41-3.59-3.99-5.14-1.06-1.04-2.43-1.7-3.66-2.53,10.41-2.74,12,4.45,12.12,13.33-4.73,2.48-8.85-5.02-13.67-1.03-3.05-1.66-9.84,1.33-7.31-7.29Z"/>
  <path class="cls-1" d="m843.53,638.49c-.6,1.49-.86,2.58-1.05,2.56-4.46-.38-6.91,8.13-12.17,3.5-.89-.79-1.58-3.73-1.46-3.81,4.44-2.66,9.18-3.43,14.69-2.26Z"/>
  <path class="cls-6" d="m819.7,613.68c-2.4-.47-4.41-1.38-4.3-5.43,2.81-.2,4.42,1.28,5.34,4.12-.37.41-.71.85-1.03,1.31Z"/>
  <path class="cls-1" d="m817.14,592.98c2.19.43,4.27,1.1,5.67,3.66-2.77.95-5.26,1.56-7.22-1.46.52-.73,1.03-1.47,1.55-2.21Z"/>
  <polygon class="cls-6" points="812.51 605.59 812.73 606.2 812.16 606.13 812.51 605.59"/>
  <path class="cls-1" d="m622.39,706.06c-3.43-3.33-5.71-8.08-10.25-10.42,1.43,16.98-7.76,2.67-11.31,5.02-3.5-3-1.26-6.91-1.32-10.45,4.21-5.52,6.32-11.91,6.41-19.15,8.25-6.54,7.15.7,7.28,6.13-1.89,1.98.21,3.29.66,4.88.73-.67,1.47-1.33,2.2-2,1.03,7.51,6.63,13.02,7.3,20.7.16,1.89.76,3.84-.96,5.28Z"/>
  <path class="cls-6" d="m605.91,671.07c-.09,7.24-2.2,13.63-6.41,19.15,2.21-10.74,2.12-22.07,7.54-32.16-.38,4.34-.76,8.67-1.14,13.01Z"/>
  <path class="cls-8" d="m616.06,680.08c-.73.67-1.47,1.33-2.2,2-.45-1.59-2.55-2.9-.66-4.88.95.96,1.91,1.92,2.86,2.88Z"/>
  <path class="cls-1" d="m600.96,702.4c2.02,1.75,2.67,3.45-.14,5.03.04-1.68.09-3.35.14-5.03Z"/>
  <path class="cls-1" d="m774.75,659.07c.59-.58,1.17-1.16,1.76-1.74h11.64c-2.16,3.27-4.7,1.66-6.68,2.48-.78,0-1.57,0-2.36,0-1.08.35-2.16.7-3.23,1.05,0,0,.11.02.11.02-.41-.6-.82-1.2-1.24-1.81Z"/>
  <path class="cls-6" d="m779.12,659.81c.79,0,1.58,0,2.36,0,.03,1.24-.14,2.46-1.57,2.09-.39-.1-.53-1.36-.78-2.09Z"/>
  <path class="cls-6" d="m775.99,660.88s-.11-.02-.11-.02c.04,0,.07.01.11.02Z"/>
  <path class="cls-6" d="m326.46,506.71c4.23,2.28.17,5.84,1.08,8.62-1.77-2.66-.99-5.71-1.08-8.62Z"/>
  <path class="cls-2" d="m425.67,771.53c2.77.56,3.07-1.7,3.5-3.81,2.86.52,5.51.46,6.89-3.1,1.1,1.74,2.2,3.49,3.3,5.24-.62,1.33-1.25,2.66-1.87,3.98-5.26,1.76-10.52,3.52-15.77,5.27.44-3.1,1.66-5.69,3.96-7.58Z"/>
  <path class="cls-2" d="m411.06,781.64c-4.15,5.23-9.71,6.27-15.55,6.47,4.31-4.77,9.89-5.73,15.55-6.47Z"/>
  <path class="cls-6" d="m421.78,758.35c.57.38,1.14.76,1.7,1.14-.5.19-1.01.39-1.51.58-.34-.54-.4-1.11-.19-1.73Z"/>
  <path class="cls-1" d="m437.48,773.84c.62-1.33,1.25-2.65,1.87-3.98,4.19-.65,2.87-3.71,2.3-6.46-1.15-5.55-2.15-11.15-3.5-16.64-.8-3.28-.94-5.7,2.88-6.04-1.44,9.35,4.53,16.32,6.38,24.61,1.15,6.2,1.45,12.39-.23,18.88-5.63-.78-6.82-6.59-9.7-10.37Z"/>
  <path class="cls-3" d="m447.41,765.33c-1.85-8.29-7.82-15.26-6.38-24.61,2.81-2.3,5.04-2.68,6.41,1.83,1.81,5.95,3.85,11.81,5.79,17.71-1.11,1.71-2.22,3.41-3.32,5.12-.83-.01-1.66-.03-2.5-.04Z"/>
  <path class="cls-3" d="m436.05,764.62c-1.38,3.56-4.03,3.62-6.89,3.1.8-7.09-6.28-14.74,1.25-21.34,2.51,5.84,2.19,12.77,5.64,18.24Z"/>
  <path class="cls-3" d="m459.57,731.3c7.17,2.1,7.62,10.21,11.18,15.53-2.63,2.7-5.84,1.55-8.86,1.63-.77-5.72-1.55-11.44-2.32-17.16Z"/>
  <path class="cls-1" d="m449.9,765.38c1.11-1.71,2.22-3.41,3.32-5.12,1.4.12,3.01-.22,4.16.44,3.04,1.74,8.59,2.88,6.5,7.8-1.97,4.65-4.84-1.06-7.41-1.79-2.15-.61-4.38-.9-6.57-1.33Z"/>
  <path class="cls-2" d="m461.89,748.46c3.02-.08,6.22,1.07,8.86-1.63,1.07.65,2.15,1.3,3.22,1.95-5.66,9.62-7.21,9.58-12.07-.33Z"/>
  <path class="cls-2" d="m475.54,740.67c.77,1.39,1.54,2.77,2.31,4.16,0,0-.77-.24-.77-.24,0,0-.75.31-.75.31-.26-1.41-.53-2.82-.79-4.23Z"/>
  <path class="cls-8" d="m500.16,858.03c-2.39-.77-5.19.1-7.21-2.21,3.4-3.29,6.68-6.09,7.21,2.21Z"/>
  <path class="cls-8" d="m480.86,866.83c1.17.59,4.14-1.77,3.14,2.37-1.33-.33-2.87-.3-3.14-2.37Z"/>
  <path class="cls-6" d="m540.63,538.93c-6.89,1.6-7.92-3.1-9.03-6.75-.84-2.78.74-5.09,3.75-4.75,4.44.51,8.97,1.74,9.71,7.55.65,5.1-3.57,3.68-4.42,3.95Z"/>
  <path class="cls-6" d="m540.91,550.38c10.4-3.69,14.76,5.33,21.45,6.85-7.23.73-13.39-2.45-21.45-6.85Z"/>
  <path class="cls-8" d="m580.62,595.73c-4.58-2.7-3.52-9.15-6.78-12.7.6-1.55,1.2-3.12,1.79-4.69,7.3,5.3,8.86,10.76,4.99,17.39Z"/>
  <path class="cls-6" d="m526.41,563.54c-3.86,5.47-8.1,3.48-12.37.79,4.05-1.83,8.05-4.52,12.37-.79Z"/>
  <path class="cls-2" d="m505.21,668.41c-2.49,1.51-1.37,4.42-2.1,6.6-1.85,5.47-4.34,8.5-8.31,1.69.19-7.89,2.81-11.98,10.41-8.29Z"/>
  <path class="cls-7" d="m583.5,648.35c-3.51-1.49-7.01-2.97-10.52-4.46,6.87-6.11,3.95-15.87,7.03-23.39,4.68.3,9.92-.95,3.38,7.23-4.48,5.6-3.7,13.74.11,20.62Z"/>
  <path class="cls-2" d="m799.38,595.4c.07,1.81.75,4.84.11,5.24-3.04,1.91-5.58-.66-7.61-2.67-1.88-1.86-6.21-3.76-3.67-7.27,2.31-3.2,4.22,1.41,6.33,2.54,1.54.82,3.18,1.41,4.78,2.11,0,0,.05.06.05.06Z"/>
  <path class="cls-2" d="m384.68,486.82c.7-.14,1.4-.28,2.1-.43.18,1.46.36,2.93.55,4.41-.67.02-1.34.03-2.02.04-.21-1.34-.42-2.68-.62-4.02Z"/>
  <path class="cls-2" d="m382.32,481.61c-.81.34-1.32.75-1.81.73-.97-.03-1.69-.67-1.39-1.83.1-.39,1.05-.92,1.34-.76.67.37,1.17,1.12,1.87,1.85Z"/>
  <path class="cls-1" d="m384.68,486.82c.21,1.34.42,2.68.62,4.02-2.84-.83-1.12-2.54-.62-4.02Z"/>
  <path class="cls-2" d="m463.45,535.25s-.03.03-.03.03c0,0,.03-.03.03-.03Z"/>
  <path class="cls-2" d="m604.66,413.93c-.35.22-.93.58-1.5.93-.27-.82-.64-1.62-.75-2.47-.03-.2.83-.79,1.26-.76.98.07,1.31.84,1,2.29Z"/>
  <path class="cls-6" d="m607.93,345.21c-.18-.1-.36-.19-.54-.29.16.12.32.24.48.36,0,0,.06-.07.06-.07Z"/>
  <path class="cls-1" d="m67.45,157.79c1.18.46,1.21,1.32.91,2.29-1.82-.24-.84-1.45-.91-2.29Z"/>
</svg>